<?xml version="1.0" encoding="UTF-8" standalone="no"?>
<!DOCTYPE svg PUBLIC "-//W3C//DTD SVG 1.1//EN"
 "http://www.w3.org/Graphics/SVG/1.1/DTD/svg11.dtd">
<!-- Generated by graphviz version 2.50.0 (20211204.2007)
 -->
<!-- Title: G Pages: 1 -->
<svg width="512pt" height="387pt"
 viewBox="0.00 0.00 512.00 387.00" xmlns="http://www.w3.org/2000/svg" xmlns:xlink="http://www.w3.org/1999/xlink">
<g id="page0,1_graph0" class="graph" transform="scale(1 1) rotate(0) translate(4 383)">
<title>G</title>
<polygon fill="white" stroke="transparent" points="-4,4 -4,-383 508,-383 508,4 -4,4"/>
<g id="clust1" class="cluster">
<title>cluster_0</title>
<polygon fill="lightgrey" stroke="lightgrey" points="8,-113 8,-371 176,-371 176,-113 8,-113"/>
<text text-anchor="middle" x="92" y="-355.8" font-family="overlock" font-size="14.00">Existing system</text>
<text text-anchor="middle" x="92" y="-340.8" font-family="overlock" font-size="14.00">[trading&#45;app.git]</text>
</g>
<g id="clust2" class="cluster">
<title>cluster_1</title>
<polygon fill="none" stroke="blue" points="196,-8 196,-370 332,-370 332,-8 196,-8"/>
<text text-anchor="middle" x="264" y="-354.8" font-family="overlock" font-size="14.00">Generated manifests</text>
<text text-anchor="middle" x="264" y="-339.8" font-family="overlock" font-size="14.00">[trading&#45;app/]</text>
</g>
<g id="clust4" class="cluster">
<title>cluster_2</title>
<polygon fill="none" stroke="red" points="352,-224 352,-370 504,-370 504,-224 352,-224"/>
<text text-anchor="middle" x="428" y="-354.8" font-family="overlock" font-size="14.00">PostgreSQL cluster</text>
<text text-anchor="middle" x="428" y="-339.8" font-family="overlock" font-size="14.00">maintained by Operator</text>
</g>
<!-- a1 -->
<g id="node1" class="node">
<title>a1</title>
<polygon fill="white" stroke="white" points="158.5,-325 25.5,-325 25.5,-287 158.5,-287 158.5,-325"/>
<text text-anchor="middle" x="92" y="-309.8" font-family="overlock" font-size="14.00">DBMS configuration</text>
<text text-anchor="middle" x="92" y="-294.8" font-family="overlock" font-size="14.00">[N/A]</text>
</g>
<!-- b0 -->
<g id="node5" class="node">
<title>b0</title>
<polygon fill="lightgrey" stroke="black" points="317,-324 210,-324 210,-288 317,-288 317,-324"/>
<text text-anchor="middle" x="263.5" y="-302.3" font-family="overlock" font-size="14.00">postgresql.yaml</text>
</g>
<!-- a1&#45;&gt;b0 -->
<g id="edge3" class="edge">
<title>a1&#45;&gt;b0</title>
<path fill="none" stroke="black" d="M158.53,-306C172.04,-306 186.24,-306 199.66,-306"/>
<polygon fill="black" stroke="black" points="199.73,-309.5 209.73,-306 199.73,-302.5 199.73,-309.5"/>
</g>
<!-- a2 -->
<g id="node2" class="node">
<title>a2</title>
<polygon fill="white" stroke="white" points="168,-269 16,-269 16,-231 168,-231 168,-269"/>
<text text-anchor="middle" x="92" y="-253.8" font-family="overlock" font-size="14.00">SQL files (DDL/DML)</text>
<text text-anchor="middle" x="92" y="-238.8" font-family="overlock" font-size="14.00">[psql/trading_ddl/*.sql]</text>
</g>
<!-- b2 -->
<g id="node6" class="node">
<title>b2</title>
<polygon fill="lightgrey" stroke="black" points="307.5,-270 219.5,-270 219.5,-234 307.5,-234 307.5,-270"/>
<text text-anchor="middle" x="263.5" y="-248.3" font-family="overlock" font-size="14.00">cm&#45;sqls.yaml</text>
</g>
<!-- a2&#45;&gt;b2 -->
<g id="edge4" class="edge">
<title>a2&#45;&gt;b2</title>
<path fill="none" stroke="black" d="M168.33,-250.89C182.15,-251.05 196.3,-251.22 209.29,-251.37"/>
<polygon fill="black" stroke="black" points="209.4,-254.87 219.44,-251.49 209.48,-247.87 209.4,-254.87"/>
</g>
<!-- a3 -->
<g id="node3" class="node">
<title>a3</title>
<polygon fill="white" stroke="white" points="140,-213 44,-213 44,-175 140,-175 140,-213"/>
<text text-anchor="middle" x="92" y="-197.8" font-family="overlock" font-size="14.00">DB init scripts</text>
<text text-anchor="middle" x="92" y="-182.8" font-family="overlock" font-size="14.00">[start_up.sh]</text>
</g>
<!-- b3 -->
<g id="node7" class="node">
<title>b3</title>
<polygon fill="lightgrey" stroke="black" points="314,-216 213,-216 213,-180 314,-180 314,-216"/>
<text text-anchor="middle" x="263.5" y="-194.3" font-family="overlock" font-size="14.00">cm&#45;init&#45;db.yaml</text>
</g>
<!-- a3&#45;&gt;b3 -->
<g id="edge5" class="edge">
<title>a3&#45;&gt;b3</title>
<path fill="none" stroke="black" d="M140.22,-195.11C159.57,-195.57 182.2,-196.11 202.7,-196.59"/>
<polygon fill="black" stroke="black" points="202.8,-200.09 212.88,-196.83 202.96,-193.09 202.8,-200.09"/>
</g>
<!-- b4 -->
<g id="node8" class="node">
<title>b4</title>
<polygon fill="lightgrey" stroke="black" points="306,-162 221,-162 221,-126 306,-126 306,-162"/>
<text text-anchor="middle" x="263.5" y="-140.3" font-family="overlock" font-size="14.00">job&#45;init.yaml</text>
</g>
<!-- a3&#45;&gt;b4 -->
<g id="edge6" class="edge">
<title>a3&#45;&gt;b4:w</title>
<path fill="none" stroke="black" d="M140.4,-179.31C152.16,-175.31 164.64,-170.76 176,-166 192.39,-159.13 196.58,-148.73 209.52,-145.21"/>
<polygon fill="black" stroke="black" points="209.99,-148.68 219.5,-144 209.15,-141.73 209.99,-148.68"/>
</g>
<!-- a4 -->
<g id="node4" class="node">
<title>a4</title>
<polygon fill="white" stroke="white" points="139.5,-157 44.5,-157 44.5,-121 139.5,-121 139.5,-157"/>
<text text-anchor="middle" x="92" y="-135.3" font-family="overlock" font-size="14.00">Program code</text>
</g>
<!-- b6 -->
<g id="node10" class="node">
<title>b6</title>
<polygon fill="lightgrey" stroke="black" stroke-dasharray="1,5" points="311,-54 216,-54 216,-16 311,-16 311,-54"/>
<text text-anchor="middle" x="263.5" y="-38.8" font-family="overlock" font-size="14.00">Program code</text>
<text text-anchor="middle" x="263.5" y="-23.8" font-family="overlock" font-size="14.00">(rewritten)</text>
</g>
<!-- a4&#45;&gt;b6 -->
<g id="edge7" class="edge">
<title>a4&#45;&gt;b6</title>
<path fill="none" stroke="black" stroke-dasharray="1,5" d="M114.46,-120.8C134.61,-104.3 166.06,-80.03 196,-63 199.39,-61.07 202.95,-59.19 206.57,-57.39"/>
<polygon fill="black" stroke="black" points="208.15,-60.51 215.67,-53.05 205.14,-54.19 208.15,-60.51"/>
</g>
<!-- c0 -->
<g id="node11" class="node">
<title>c0</title>
<polygon fill="lightgrey" stroke="black" points="481.5,-270 374.5,-270 374.5,-232 481.5,-232 481.5,-270"/>
<text text-anchor="middle" x="428" y="-254.8" font-family="overlock" font-size="14.00">Secret</text>
<text text-anchor="middle" x="428" y="-239.8" font-family="overlock" font-size="14.00">[user accounts]</text>
</g>
<!-- b0&#45;&gt;c0 -->
<g id="edge9" class="edge">
<title>b0&#45;&gt;c0</title>
<path fill="none" stroke="black" d="M317.26,-288.14C332.38,-283.03 349,-277.4 364.64,-272.11"/>
<polygon fill="black" stroke="black" points="365.88,-275.38 374.23,-268.86 363.63,-268.75 365.88,-275.38"/>
</g>
<!-- c1 -->
<g id="node12" class="node">
<title>c1</title>
<polygon fill="lightgrey" stroke="black" points="487,-324 369,-324 369,-288 487,-288 487,-324"/>
<text text-anchor="middle" x="428" y="-302.3" font-family="overlock" font-size="14.00">Svcs, RSs, Pods, ...</text>
</g>
<!-- b0&#45;&gt;c1 -->
<g id="edge8" class="edge">
<title>b0:e&#45;&gt;c1:w</title>
<path fill="none" stroke="black" d="M318.5,-306C336.72,-306 343.62,-306 357.95,-306"/>
<polygon fill="black" stroke="black" points="358,-309.5 368,-306 358,-302.5 358,-309.5"/>
</g>
<!-- b4&#45;&gt;b2 -->
<g id="edge2" class="edge">
<title>b4:e&#45;&gt;b2:e</title>
<path fill="none" stroke="black" stroke-dasharray="5,2" d="M307.5,-144C335.06,-144 345.38,-155.5 358,-180 374.19,-211.42 352.07,-245.29 318.69,-251.12"/>
<polygon fill="black" stroke="black" points="318.16,-247.65 308.5,-252 318.76,-254.63 318.16,-247.65"/>
<text text-anchor="middle" x="337.01" y="-168.82" font-family="overlock" font-size="14.00"> mount</text>
</g>
<!-- b4&#45;&gt;b3 -->
<g id="edge1" class="edge">
<title>b4&#45;&gt;b3</title>
<path fill="none" stroke="black" stroke-dasharray="5,2" d="M263.5,-162.14C263.5,-164.62 263.5,-167.1 263.5,-169.59"/>
<polygon fill="black" stroke="black" points="260,-169.79 263.5,-179.79 267,-169.79 260,-169.79"/>
<text text-anchor="middle" x="284.5" y="-169.52" font-family="overlock" font-size="14.00">mount </text>
</g>
<!-- b4&#45;&gt;c0 -->
<g id="edge10" class="edge">
<title>b4:e&#45;&gt;c0:s</title>
<path fill="none" stroke="black" stroke-dasharray="5,2" d="M307.5,-144C370.07,-144 422.23,-162.79 427.55,-220.92"/>
<polygon fill="black" stroke="black" points="424.06,-221.17 428,-231 431.05,-220.85 424.06,-221.17"/>
<text text-anchor="middle" x="369.52" y="-149.48" font-family="overlock" font-size="14.00">mount</text>
</g>
<!-- b5 -->
<g id="node9" class="node">
<title>b5</title>
<polygon fill="none" stroke="black" points="311,-108 216,-108 216,-72 311,-72 311,-108"/>
<text text-anchor="middle" x="263.5" y="-86.3" font-family="overlock" font-size="14.00">pod&#45;test.yaml</text>
</g>
</g>
</svg>
