<?xml version="1.0" encoding="UTF-8" standalone="no"?>
<!DOCTYPE svg PUBLIC "-//W3C//DTD SVG 1.1//EN"
 "http://www.w3.org/Graphics/SVG/1.1/DTD/svg11.dtd">
<!-- Generated by graphviz version 2.50.0 (20211204.2007)
 -->
<!-- Title: G Pages: 1 -->
<svg width="559pt" height="458pt"
 viewBox="0.00 0.00 559.00 458.00" xmlns="http://www.w3.org/2000/svg" xmlns:xlink="http://www.w3.org/1999/xlink">
<g id="page0,1_graph0" class="graph" transform="scale(1 1) rotate(0) translate(4 454)">
<title>G</title>
<polygon fill="white" stroke="transparent" points="-4,4 -4,-454 555,-454 555,4 -4,4"/>
<g id="clust1" class="cluster">
<title>cluster_0</title>
<polygon fill="lightgrey" stroke="lightgrey" points="8,-113 8,-403 168,-403 168,-113 8,-113"/>
<text text-anchor="middle" x="88" y="-387.8" font-family="Times,serif" font-size="14.00">Current System</text>
<text text-anchor="middle" x="88" y="-372.8" font-family="Times,serif" font-size="14.00">[app&#45;name=trading&#45;app]</text>
</g>
<g id="clust2" class="cluster">
<title>cluster_1</title>
<polygon fill="none" stroke="blue" points="204,-8 204,-442 341,-442 341,-8 204,-8"/>
<text text-anchor="middle" x="272.5" y="-426.8" font-family="Times,serif" font-size="14.00">Generated Manifests</text>
<text text-anchor="middle" x="272.5" y="-411.8" font-family="Times,serif" font-size="14.00">(out&#45;dir=trading&#45;app/)</text>
</g>
<g id="clust4" class="cluster">
<title>cluster_2</title>
<polygon fill="none" stroke="red" points="362,-298 362,-373 551,-373 551,-298 362,-298"/>
<text text-anchor="middle" x="456.5" y="-357.8" font-family="Times,serif" font-size="14.00">Resources that Operator creates</text>
</g>
<!-- a1 -->
<g id="node1" class="node">
<title>a1</title>
<polygon fill="white" stroke="white" points="154,-356.5 22,-356.5 22,-303.5 154,-303.5 154,-356.5"/>
<text text-anchor="middle" x="88" y="-341.3" font-family="Times,serif" font-size="14.00">DBMS configuration</text>
<text text-anchor="middle" x="88" y="-326.3" font-family="Times,serif" font-size="14.00">[cluster config.</text>
<text text-anchor="middle" x="88" y="-311.3" font-family="Times,serif" font-size="14.00">credential]</text>
</g>
<!-- b0 -->
<g id="node5" class="node">
<title>b0</title>
<polygon fill="lightgrey" stroke="black" points="318.5,-396 225.5,-396 225.5,-360 318.5,-360 318.5,-396"/>
<text text-anchor="middle" x="272" y="-374.3" font-family="Times,serif" font-size="14.00">postgres.yaml</text>
</g>
<!-- a1&#45;&gt;b0 -->
<g id="edge3" class="edge">
<title>a1&#45;&gt;b0</title>
<path fill="none" stroke="black" d="M154.19,-347.19C174.26,-352.49 196.15,-358.26 215.49,-363.36"/>
<polygon fill="black" stroke="black" points="214.8,-366.8 225.36,-365.96 216.58,-360.03 214.8,-366.8"/>
</g>
<!-- b1 -->
<g id="node6" class="node">
<title>b1</title>
<polygon fill="lightgrey" stroke="black" stroke-dasharray="1,5" points="321,-342 223,-342 223,-306 321,-306 321,-342"/>
<text text-anchor="middle" x="272" y="-320.3" font-family="Times,serif" font-size="14.00">secret&#45;db.yaml</text>
</g>
<!-- a1&#45;&gt;b1 -->
<g id="edge4" class="edge">
<title>a1&#45;&gt;b1</title>
<path fill="none" stroke="black" stroke-dasharray="1,5" d="M154.19,-327.85C173.3,-327.22 194.06,-326.54 212.7,-325.92"/>
<polygon fill="black" stroke="black" points="212.94,-329.42 222.82,-325.59 212.71,-322.42 212.94,-329.42"/>
</g>
<!-- a2 -->
<g id="node2" class="node">
<title>a2</title>
<polygon fill="white" stroke="white" points="160,-285 16,-285 16,-247 160,-247 160,-285"/>
<text text-anchor="middle" x="88" y="-269.8" font-family="Times,serif" font-size="14.00">SQL files (DDL/DML)</text>
<text text-anchor="middle" x="88" y="-254.8" font-family="Times,serif" font-size="14.00">[**/*.sql]</text>
</g>
<!-- b2 -->
<g id="node7" class="node">
<title>b2</title>
<polygon fill="lightgrey" stroke="black" points="317.5,-288 226.5,-288 226.5,-252 317.5,-252 317.5,-288"/>
<text text-anchor="middle" x="272" y="-266.3" font-family="Times,serif" font-size="14.00">cm&#45;sqls.yaml</text>
</g>
<!-- a2&#45;&gt;b2 -->
<g id="edge5" class="edge">
<title>a2&#45;&gt;b2</title>
<path fill="none" stroke="black" d="M160.15,-267.56C178.82,-267.97 198.66,-268.41 216.31,-268.8"/>
<polygon fill="black" stroke="black" points="216.36,-272.3 226.43,-269.02 216.51,-265.3 216.36,-272.3"/>
<text text-anchor="middle" x="186" y="-271.8" font-family="Times,serif" font-size="14.00">(1)</text>
</g>
<!-- a3 -->
<g id="node3" class="node">
<title>a3</title>
<polygon fill="white" stroke="white" points="152,-228.5 24,-228.5 24,-175.5 152,-175.5 152,-228.5"/>
<text text-anchor="middle" x="88" y="-213.3" font-family="Times,serif" font-size="14.00">Init scripts</text>
<text text-anchor="middle" x="88" y="-198.3" font-family="Times,serif" font-size="14.00">(psql commands)</text>
<text text-anchor="middle" x="88" y="-183.3" font-family="Times,serif" font-size="14.00">[start&#45;up.sh: psql ...]</text>
</g>
<!-- b3 -->
<g id="node8" class="node">
<title>b3</title>
<polygon fill="lightgrey" stroke="black" points="325,-234 219,-234 219,-198 325,-198 325,-234"/>
<text text-anchor="middle" x="272" y="-212.3" font-family="Times,serif" font-size="14.00">cm&#45;init&#45;db.yaml</text>
</g>
<!-- a3&#45;&gt;b3 -->
<g id="edge6" class="edge">
<title>a3&#45;&gt;b3</title>
<path fill="none" stroke="black" d="M152.14,-206.86C170.42,-208.26 190.36,-209.8 208.6,-211.2"/>
<polygon fill="black" stroke="black" points="208.58,-214.71 218.82,-211.99 209.12,-207.73 208.58,-214.71"/>
<text text-anchor="middle" x="186" y="-212.8" font-family="Times,serif" font-size="14.00">(2)</text>
</g>
<!-- b4 -->
<g id="node9" class="node">
<title>b4</title>
<polygon fill="lightgrey" stroke="black" points="316,-162 228,-162 228,-126 316,-126 316,-162"/>
<text text-anchor="middle" x="272" y="-140.3" font-family="Times,serif" font-size="14.00">job&#45;init.yaml</text>
</g>
<!-- a3&#45;&gt;b4 -->
<g id="edge7" class="edge">
<title>a3&#45;&gt;b4:w</title>
<path fill="none" stroke="black" stroke-dasharray="1,5" d="M149.41,-175.38C175.16,-164.18 202.57,-152.51 217.05,-147.1"/>
<polygon fill="black" stroke="black" points="218.49,-150.31 227,-144 216.41,-143.63 218.49,-150.31"/>
</g>
<!-- a4 -->
<g id="node4" class="node">
<title>a4</title>
<polygon fill="white" stroke="white" points="134.5,-157 41.5,-157 41.5,-121 134.5,-121 134.5,-157"/>
<text text-anchor="middle" x="88" y="-135.3" font-family="Times,serif" font-size="14.00">Program code</text>
</g>
<!-- b6 -->
<g id="node11" class="node">
<title>b6</title>
<polygon fill="lightgrey" stroke="black" stroke-dasharray="1,5" points="318.5,-54 225.5,-54 225.5,-16 318.5,-16 318.5,-54"/>
<text text-anchor="middle" x="272" y="-38.8" font-family="Times,serif" font-size="14.00">Program code</text>
<text text-anchor="middle" x="272" y="-23.8" font-family="Times,serif" font-size="14.00">(rewritten)</text>
</g>
<!-- a4&#45;&gt;b6 -->
<g id="edge8" class="edge">
<title>a4&#45;&gt;b6</title>
<path fill="none" stroke="black" stroke-dasharray="1,5" d="M113.29,-121C136.02,-104.63 171.27,-80.45 204,-63 207.92,-60.91 212.04,-58.86 216.21,-56.89"/>
<polygon fill="black" stroke="black" points="217.77,-60.03 225.41,-52.69 214.86,-53.66 217.77,-60.03"/>
</g>
<!-- c0 -->
<g id="node12" class="node">
<title>c0</title>
<polygon fill="lightgrey" stroke="black" points="509,-342 404,-342 404,-306 509,-306 509,-342"/>
<text text-anchor="middle" x="456.5" y="-320.3" font-family="Times,serif" font-size="14.00">Secret (account)</text>
</g>
<!-- b0&#45;&gt;c0 -->
<g id="edge9" class="edge">
<title>b0:e&#45;&gt;c0:w</title>
<path fill="none" stroke="black" d="M320,-378C360.06,-378 359.2,-332.88 392.22,-325.13"/>
<polygon fill="black" stroke="black" points="392.94,-328.57 402.5,-324 392.18,-321.61 392.94,-328.57"/>
</g>
<!-- b1&#45;&gt;c0 -->
<g id="edge10" class="edge">
<title>b1&#45;&gt;c0</title>
<path fill="none" stroke="black" stroke-dasharray="1,5" d="M321.43,-324C343.6,-324 370.13,-324 393.71,-324"/>
<polygon fill="black" stroke="black" points="393.97,-327.5 403.97,-324 393.97,-320.5 393.97,-327.5"/>
</g>
<!-- b4&#45;&gt;b2 -->
<g id="edge2" class="edge">
<title>b4:e&#45;&gt;b2:e</title>
<path fill="none" stroke="black" stroke-dasharray="5,2" d="M317,-144C369.4,-144 374.52,-254.28 329.11,-268.5"/>
<polygon fill="black" stroke="black" points="328.38,-265.07 319,-270 329.41,-271.99 328.38,-265.07"/>
<text text-anchor="middle" x="379.98" y="-194.54" font-family="Times,serif" font-size="14.00"> mount</text>
</g>
<!-- b4&#45;&gt;b3 -->
<g id="edge1" class="edge">
<title>b4&#45;&gt;b3</title>
<path fill="none" stroke="black" stroke-dasharray="5,2" d="M272,-162.28C272,-170.83 272,-179.37 272,-187.92"/>
<polygon fill="black" stroke="black" points="268.5,-187.95 272,-197.95 275.5,-187.95 268.5,-187.95"/>
<text text-anchor="middle" x="252" y="-169.11" font-family="Times,serif" font-size="14.00">mount </text>
</g>
<!-- b4&#45;&gt;c0 -->
<g id="edge11" class="edge">
<title>b4:e&#45;&gt;c0:s</title>
<path fill="none" stroke="black" stroke-dasharray="5,2" d="M317,-144C408.26,-144 453.2,-205.61 456.32,-294.85"/>
<polygon fill="black" stroke="black" points="452.83,-295.06 456.5,-305 459.83,-294.94 452.83,-295.06"/>
<text text-anchor="middle" x="445.36" y="-184.55" font-family="Times,serif" font-size="14.00">mount</text>
</g>
<!-- b5 -->
<g id="node10" class="node">
<title>b5</title>
<polygon fill="none" stroke="black" points="318,-108 226,-108 226,-72 318,-72 318,-108"/>
<text text-anchor="middle" x="272" y="-86.3" font-family="Times,serif" font-size="14.00">pod&#45;test.yaml</text>
</g>
</g>
</svg>
