<?xml version="1.0" encoding="UTF-8" standalone="no"?>
<!DOCTYPE svg PUBLIC "-//W3C//DTD SVG 1.1//EN"
 "http://www.w3.org/Graphics/SVG/1.1/DTD/svg11.dtd">
<!-- Generated by graphviz version 2.50.0 (20211204.2007)
 -->
<!-- Title: G Pages: 1 -->
<svg width="493pt" height="440pt"
 viewBox="0.00 0.00 493.00 440.00" xmlns="http://www.w3.org/2000/svg" xmlns:xlink="http://www.w3.org/1999/xlink">
<g id="graph0" class="graph" transform="scale(1 1) rotate(0) translate(4 436)">
<title>G</title>
<polygon fill="white" stroke="transparent" points="-4,4 -4,-436 489,-436 489,4 -4,4"/>
<g id="clust1" class="cluster">
<title>cluster_0</title>
<polygon fill="lightgrey" stroke="lightgrey" points="8,-110 8,-369 157,-369 157,-110 8,-110"/>
<text text-anchor="middle" x="82.5" y="-353.8" font-family="overlock" font-size="14.00">Existing system</text>
</g>
<g id="clust2" class="cluster">
<title>cluster_1</title>
<polygon fill="none" stroke="blue" points="177,-8 177,-409 313,-409 313,-8 177,-8"/>
<text text-anchor="middle" x="245" y="-393.8" font-family="overlock" font-size="14.00">Generated manifests</text>
</g>
<g id="clust4" class="cluster">
<title>cluster_2</title>
<polygon fill="none" stroke="red" points="333,-278 333,-424 485,-424 485,-278 333,-278"/>
<text text-anchor="middle" x="409" y="-408.8" font-family="overlock" font-size="14.00">PostgreSQL cluster</text>
<text text-anchor="middle" x="409" y="-393.8" font-family="overlock" font-size="14.00">maintained by Operator</text>
</g>
<!-- a1 -->
<g id="node1" class="node">
<title>a1</title>
<polygon fill="white" stroke="white" points="149,-337.5 16,-337.5 16,-284.5 149,-284.5 149,-337.5"/>
<text text-anchor="middle" x="82.5" y="-322.3" font-family="overlock" font-size="14.00">DBMS configuration</text>
<text text-anchor="middle" x="82.5" y="-307.3" font-family="overlock" font-size="14.00">[cluster config.,</text>
<text text-anchor="middle" x="82.5" y="-292.3" font-family="overlock" font-size="14.00">credential]</text>
</g>
<!-- b1 -->
<g id="node5" class="node">
<title>b1</title>
<polygon fill="lightgrey" stroke="black" stroke-dasharray="1,5" points="293.5,-324 195.5,-324 195.5,-288 293.5,-288 293.5,-324"/>
<text text-anchor="middle" x="244.5" y="-302.3" font-family="overlock" font-size="14.00">secret&#45;db.yaml</text>
</g>
<!-- a1&#45;&gt;b1 -->
<g id="edge4" class="edge">
<title>a1&#45;&gt;b1</title>
<path fill="none" stroke="black" stroke-dasharray="1,5" d="M149.04,-308.95C161.05,-308.58 173.52,-308.19 185.3,-307.82"/>
<polygon fill="black" stroke="black" points="185.56,-311.31 195.45,-307.5 185.35,-304.32 185.56,-311.31"/>
</g>
<!-- b0 -->
<g id="node6" class="node">
<title>b0</title>
<polygon fill="lightgrey" stroke="black" points="298,-378 191,-378 191,-342 298,-342 298,-378"/>
<text text-anchor="middle" x="244.5" y="-356.3" font-family="overlock" font-size="14.00">postgresql.yaml</text>
</g>
<!-- a1&#45;&gt;b0 -->
<g id="edge3" class="edge">
<title>a1&#45;&gt;b0</title>
<path fill="none" stroke="black" d="M149.04,-331.07C159.5,-334.28 170.31,-337.59 180.71,-340.77"/>
<polygon fill="black" stroke="black" points="179.94,-344.2 190.53,-343.78 181.99,-337.5 179.94,-344.2"/>
</g>
<!-- a2 -->
<g id="node2" class="node">
<title>a2</title>
<polygon fill="white" stroke="white" points="149,-266 16,-266 16,-228 149,-228 149,-266"/>
<text text-anchor="middle" x="82.5" y="-250.8" font-family="overlock" font-size="14.00">SQL files (DDL/DML)</text>
<text text-anchor="middle" x="82.5" y="-235.8" font-family="overlock" font-size="14.00">[**/*.sql]</text>
</g>
<!-- b2 -->
<g id="node7" class="node">
<title>b2</title>
<polygon fill="lightgrey" stroke="black" points="288.5,-270 200.5,-270 200.5,-234 288.5,-234 288.5,-270"/>
<text text-anchor="middle" x="244.5" y="-248.3" font-family="overlock" font-size="14.00">cm&#45;sqls.yaml</text>
</g>
<!-- a2&#45;&gt;b2 -->
<g id="edge5" class="edge">
<title>a2&#45;&gt;b2</title>
<path fill="none" stroke="black" d="M149.04,-249.05C162.66,-249.47 176.86,-249.92 189.98,-250.33"/>
<polygon fill="black" stroke="black" points="190.14,-253.83 200.25,-250.65 190.36,-246.84 190.14,-253.83"/>
</g>
<!-- a3 -->
<g id="node3" class="node">
<title>a3</title>
<polygon fill="white" stroke="white" points="140.5,-210 24.5,-210 24.5,-172 140.5,-172 140.5,-210"/>
<text text-anchor="middle" x="82.5" y="-194.8" font-family="overlock" font-size="14.00">DB init scripts</text>
<text text-anchor="middle" x="82.5" y="-179.8" font-family="overlock" font-size="14.00">[psql commands]</text>
</g>
<!-- b3 -->
<g id="node8" class="node">
<title>b3</title>
<polygon fill="lightgrey" stroke="black" points="295,-216 194,-216 194,-180 295,-180 295,-216"/>
<text text-anchor="middle" x="244.5" y="-194.3" font-family="overlock" font-size="14.00">cm&#45;init&#45;db.yaml</text>
</g>
<!-- a3&#45;&gt;b3 -->
<g id="edge6" class="edge">
<title>a3&#45;&gt;b3</title>
<path fill="none" stroke="black" d="M140.81,-193.51C154.81,-194.12 169.82,-194.78 183.92,-195.39"/>
<polygon fill="black" stroke="black" points="183.86,-198.89 194,-195.83 184.16,-191.9 183.86,-198.89"/>
</g>
<!-- b4 -->
<g id="node9" class="node">
<title>b4</title>
<polygon fill="lightgrey" stroke="black" points="287,-162 202,-162 202,-126 287,-126 287,-162"/>
<text text-anchor="middle" x="244.5" y="-140.3" font-family="overlock" font-size="14.00">job&#45;init.yaml</text>
</g>
<!-- a3&#45;&gt;b4 -->
<g id="edge7" class="edge">
<title>a3&#45;&gt;b4:w</title>
<path fill="none" stroke="black" d="M134.63,-171.88C142.15,-168.97 149.79,-165.94 157,-163 172.87,-156.52 177.74,-148.03 190.33,-145.07"/>
<polygon fill="black" stroke="black" points="190.92,-148.53 200.5,-144 190.19,-141.56 190.92,-148.53"/>
</g>
<!-- a4 -->
<g id="node4" class="node">
<title>a4</title>
<polygon fill="white" stroke="white" points="130,-154 35,-154 35,-118 130,-118 130,-154"/>
<text text-anchor="middle" x="82.5" y="-132.3" font-family="overlock" font-size="14.00">Program code</text>
</g>
<!-- b6 -->
<g id="node11" class="node">
<title>b6</title>
<polygon fill="lightgrey" stroke="black" stroke-dasharray="1,5" points="292,-54 197,-54 197,-16 292,-16 292,-54"/>
<text text-anchor="middle" x="244.5" y="-38.8" font-family="overlock" font-size="14.00">Program code</text>
<text text-anchor="middle" x="244.5" y="-23.8" font-family="overlock" font-size="14.00">(rewritten)</text>
</g>
<!-- a4&#45;&gt;b6 -->
<g id="edge8" class="edge">
<title>a4&#45;&gt;b6</title>
<path fill="none" stroke="black" stroke-dasharray="1,5" d="M103.53,-117.8C121.74,-101.91 149.83,-78.95 177,-63 180.43,-60.99 184.03,-59.05 187.7,-57.19"/>
<polygon fill="black" stroke="black" points="189.45,-60.23 196.94,-52.74 186.41,-53.92 189.45,-60.23"/>
</g>
<!-- c0 -->
<g id="node12" class="node">
<title>c0</title>
<polygon fill="lightgrey" stroke="black" points="462.5,-324 355.5,-324 355.5,-286 462.5,-286 462.5,-324"/>
<text text-anchor="middle" x="409" y="-308.8" font-family="overlock" font-size="14.00">Secret</text>
<text text-anchor="middle" x="409" y="-293.8" font-family="overlock" font-size="14.00">[user accounts]</text>
</g>
<!-- b1&#45;&gt;c0 -->
<g id="edge10" class="edge">
<title>b1&#45;&gt;c0</title>
<path fill="none" stroke="black" stroke-dasharray="1,5" d="M293.82,-305.7C309.85,-305.6 327.95,-305.49 344.93,-305.39"/>
<polygon fill="black" stroke="black" points="345.35,-308.89 355.33,-305.32 345.31,-301.89 345.35,-308.89"/>
</g>
<!-- c1 -->
<g id="node13" class="node">
<title>c1</title>
<polygon fill="lightgrey" stroke="black" points="468,-378 350,-378 350,-342 468,-342 468,-378"/>
<text text-anchor="middle" x="409" y="-356.3" font-family="overlock" font-size="14.00">Svcs, RSs, Pods, ...</text>
</g>
<!-- b0&#45;&gt;c1 -->
<g id="edge9" class="edge">
<title>b0:e&#45;&gt;c1:w</title>
<path fill="none" stroke="black" d="M299.5,-360C317.72,-360 324.62,-360 338.95,-360"/>
<polygon fill="black" stroke="black" points="339,-363.5 349,-360 339,-356.5 339,-363.5"/>
</g>
<!-- b4&#45;&gt;b2 -->
<g id="edge2" class="edge">
<title>b4:e&#45;&gt;b2:e</title>
<path fill="none" stroke="black" stroke-dasharray="5,2" d="M288.5,-144C316.06,-144 326.38,-155.5 339,-180 355.19,-211.42 333.07,-245.29 299.69,-251.12"/>
<polygon fill="black" stroke="black" points="299.16,-247.65 289.5,-252 299.76,-254.63 299.16,-247.65"/>
<text text-anchor="middle" x="318.01" y="-168.82" font-family="overlock" font-size="14.00"> mount</text>
</g>
<!-- b4&#45;&gt;b3 -->
<g id="edge1" class="edge">
<title>b4&#45;&gt;b3</title>
<path fill="none" stroke="black" stroke-dasharray="5,2" d="M244.5,-162.14C244.5,-164.62 244.5,-167.1 244.5,-169.59"/>
<polygon fill="black" stroke="black" points="241,-169.79 244.5,-179.79 248,-169.79 241,-169.79"/>
<text text-anchor="middle" x="265.5" y="-169.52" font-family="overlock" font-size="14.00">mount </text>
</g>
<!-- b4&#45;&gt;c0 -->
<g id="edge11" class="edge">
<title>b4:e&#45;&gt;c0:s</title>
<path fill="none" stroke="black" stroke-dasharray="5,2" d="M288.5,-144C330.99,-144 406.07,-103.31 408.92,-274.77"/>
<polygon fill="black" stroke="black" points="405.42,-275.03 409,-285 412.42,-274.97 405.42,-275.03"/>
<text text-anchor="middle" x="375.37" y="-170.79" font-family="overlock" font-size="14.00">mount</text>
</g>
<!-- b5 -->
<g id="node10" class="node">
<title>b5</title>
<polygon fill="none" stroke="black" points="292,-108 197,-108 197,-72 292,-72 292,-108"/>
<text text-anchor="middle" x="244.5" y="-86.3" font-family="overlock" font-size="14.00">pod&#45;test.yaml</text>
</g>
</g>
</svg>
