<svg id="mermaid-1628919519804" width="100%" xmlns="http://www.w3.org/2000/svg" xmlns:xlink="http://www.w3.org/1999/xlink" height="856.625" style="max-width: 1343.890625px;" viewBox="-20 -20 1343.890625 856.625"><style>#mermaid-1628919519804{font-family:"trebuchet ms",verdana,arial,sans-serif;font-size:16px;fill:#333;}#mermaid-1628919519804 .error-icon{fill:#552222;}#mermaid-1628919519804 .error-text{fill:#552222;stroke:#552222;}#mermaid-1628919519804 .edge-thickness-normal{stroke-width:2px;}#mermaid-1628919519804 .edge-thickness-thick{stroke-width:3.5px;}#mermaid-1628919519804 .edge-pattern-solid{stroke-dasharray:0;}#mermaid-1628919519804 .edge-pattern-dashed{stroke-dasharray:3;}#mermaid-1628919519804 .edge-pattern-dotted{stroke-dasharray:2;}#mermaid-1628919519804 .marker{fill:#333333;stroke:#333333;}#mermaid-1628919519804 .marker.cross{stroke:#333333;}#mermaid-1628919519804 svg{font-family:"trebuchet ms",verdana,arial,sans-serif;font-size:16px;}#mermaid-1628919519804 g.classGroup text{fill:#9370DB;fill:#131300;stroke:none;font-family:"trebuchet ms",verdana,arial,sans-serif;font-size:10px;}#mermaid-1628919519804 g.classGroup text .title{font-weight:bolder;}#mermaid-1628919519804 .classTitle{font-weight:bolder;}#mermaid-1628919519804 .node rect,#mermaid-1628919519804 .node circle,#mermaid-1628919519804 .node ellipse,#mermaid-1628919519804 .node polygon,#mermaid-1628919519804 .node path{fill:#ECECFF;stroke:#9370DB;stroke-width:1px;}#mermaid-1628919519804 .divider{stroke:#9370DB;stroke:1;}#mermaid-1628919519804 g.clickable{cursor:pointer;}#mermaid-1628919519804 g.classGroup rect{fill:#ECECFF;stroke:#9370DB;}#mermaid-1628919519804 g.classGroup line{stroke:#9370DB;stroke-width:1;}#mermaid-1628919519804 .classLabel .box{stroke:none;stroke-width:0;fill:#ECECFF;opacity:0.5;}#mermaid-1628919519804 .classLabel .label{fill:#9370DB;font-size:10px;}#mermaid-1628919519804 .relation{stroke:#333333;stroke-width:1;fill:none;}#mermaid-1628919519804 .dashed-line{stroke-dasharray:3;}#mermaid-1628919519804 #compositionStart,#mermaid-1628919519804 .composition{fill:#333333 !important;stroke:#333333 !important;stroke-width:1;}#mermaid-1628919519804 #compositionEnd,#mermaid-1628919519804 .composition{fill:#333333 !important;stroke:#333333 !important;stroke-width:1;}#mermaid-1628919519804 #dependencyStart,#mermaid-1628919519804 .dependency{fill:#333333 !important;stroke:#333333 !important;stroke-width:1;}#mermaid-1628919519804 #dependencyStart,#mermaid-1628919519804 .dependency{fill:#333333 !important;stroke:#333333 !important;stroke-width:1;}#mermaid-1628919519804 #extensionStart,#mermaid-1628919519804 .extension{fill:#333333 !important;stroke:#333333 !important;stroke-width:1;}#mermaid-1628919519804 #extensionEnd,#mermaid-1628919519804 .extension{fill:#333333 !important;stroke:#333333 !important;stroke-width:1;}#mermaid-1628919519804 #aggregationStart,#mermaid-1628919519804 .aggregation{fill:#ECECFF !important;stroke:#333333 !important;stroke-width:1;}#mermaid-1628919519804 #aggregationEnd,#mermaid-1628919519804 .aggregation{fill:#ECECFF !important;stroke:#333333 !important;stroke-width:1;}#mermaid-1628919519804 .edgeTerminals{font-size:11px;}#mermaid-1628919519804:root{--mermaid-font-family:"trebuchet ms",verdana,arial,sans-serif;}</style><g></g><defs><marker id="extensionStart" class="extension" refX="0" refY="7" markerWidth="190" markerHeight="240" orient="auto"><path d="M 1,7 L18,13 V 1 Z"></path></marker></defs><defs><marker id="extensionEnd" refX="19" refY="7" markerWidth="20" markerHeight="28" orient="auto"><path d="M 1,1 V 13 L18,7 Z"></path></marker></defs><defs><marker id="compositionStart" class="extension" refX="0" refY="7" markerWidth="190" markerHeight="240" orient="auto"><path d="M 18,7 L9,13 L1,7 L9,1 Z"></path></marker></defs><defs><marker id="compositionEnd" refX="19" refY="7" markerWidth="20" markerHeight="28" orient="auto"><path d="M 18,7 L9,13 L1,7 L9,1 Z"></path></marker></defs><defs><marker id="aggregationStart" class="extension" refX="0" refY="7" markerWidth="190" markerHeight="240" orient="auto"><path d="M 18,7 L9,13 L1,7 L9,1 Z"></path></marker></defs><defs><marker id="aggregationEnd" refX="19" refY="7" markerWidth="20" markerHeight="28" orient="auto"><path d="M 18,7 L9,13 L1,7 L9,1 Z"></path></marker></defs><defs><marker id="dependencyStart" class="extension" refX="0" refY="7" markerWidth="190" markerHeight="240" orient="auto"><path d="M 5,7 L9,13 L1,7 L9,1 Z"></path></marker></defs><defs><marker id="dependencyEnd" refX="19" refY="7" markerWidth="20" markerHeight="28" orient="auto"><path d="M 18,7 L9,13 L14,7 L9,1 Z"></path></marker></defs><g id="classid-DivaConstraintModel-0" class="classGroup" transform="translate(0,503.8125 )"><rect x="0" y="0" width="106.03125" height="30" class=" "></rect><text y="15" x="0"><tspan class="title" x="5">DivaConstraintModel</tspan></text><line x1="0" y1="21" y2="21" x2="106.03125"></line><text x="5" y="31" fill="white" class="classText"></text><line x1="0" y1="26" y2="26" x2="106.03125"></line><text x="5" y="41" fill="white" class="classText"></text></g><g id="classid-WindupVertexFrame-1" class="classGroup" transform="translate(312.08203125,387.6875 )"><rect x="0" y="0" width="106.515625" height="30.0625" class=" "></rect><text y="15" x="0"><tspan class="title" x="5">WindupVertexFrame</tspan></text><line x1="0" y1="21.0625" y2="21.0625" x2="106.515625"></line><text x="5" y="31.0625" fill="white" class="classText"></text><line x1="0" y1="26.0625" y2="26.0625" x2="106.515625"></line><text x="5" y="41.0625" fill="white" class="classText"></text></g><g id="classid-DivaAppModel-2" class="classGroup" transform="translate(418.03125,775.5 )"><rect x="0" y="0" width="97.71875" height="41.125" class=" "></rect><text y="15" x="0"><tspan class="title" x="16.0546875">DivaAppModel</tspan></text><line x1="0" y1="21.0625" y2="21.0625" x2="97.71875"></line><text x="5" y="31.0625" fill="white" class="classText"><tspan x="5">+string datasource</tspan></text><line x1="0" y1="37.125" y2="37.125" x2="97.71875"></line><text x="5" y="52.125" fill="white" class="classText"></text></g><g id="classid-DivaContextModel-3" class="classGroup" transform="translate(475.53125,695.5 )"><rect x="0" y="0" width="94.515625" height="30" class=" "></rect><text y="15" x="0"><tspan class="title" x="5">DivaContextModel</tspan></text><line x1="0" y1="21" y2="21" x2="94.515625"></line><text x="5" y="31" fill="white" class="classText"></text><line x1="0" y1="26" y2="26" x2="94.515625"></line><text x="5" y="41" fill="white" class="classText"></text></g><g id="classid-ProjectModel-4" class="classGroup" transform="translate(1071.453125,191.0625 )"><rect x="0" y="0" width="163.703125" height="121.125" class=" "></rect><text y="15" x="0"><tspan class="title" x="50.890625">ProjectModel</tspan></text><line x1="0" y1="21.0625" y2="21.0625" x2="163.703125"></line><text x="5" y="31.0625" fill="white" class="classText"><tspan x="5">+string projectModelCsvFilename</tspan><tspan x="5" dy="10">+boolean sourceBased</tspan><tspan x="5" dy="10">+string organization</tspan><tspan x="5" dy="10">+string projectType</tspan><tspan x="5" dy="10">+string version</tspan><tspan x="5" dy="10">+string name</tspan><tspan x="5" dy="10">+string uniqueID</tspan><tspan x="5" dy="10">+string description</tspan><tspan x="5" dy="10">+string url</tspan></text><line x1="0" y1="117.125" y2="117.125" x2="163.703125"></line><text x="5" y="132.125" fill="white" class="classText"></text></g><g id="classid-DivaEndpointModel-5" class="classGroup" transform="translate(354.1953125,498.25 )"><rect x="0" y="0" width="113.59375" height="41.125" class=" "></rect><text y="15" x="0"><tspan class="title" x="12.1171875">DivaEndpointModel</tspan></text><line x1="0" y1="21.0625" y2="21.0625" x2="113.59375"></line><text x="5" y="31.0625" fill="white" class="classText"><tspan x="5">+string endpointName</tspan></text><line x1="0" y1="37.125" y2="37.125" x2="113.59375"></line><text x="5" y="52.125" fill="white" class="classText"></text></g><g id="classid-DivaRestApiModel-6" class="classGroup" transform="translate(203.8203125,493.25 )"><rect x="0" y="0" width="100.375" height="51.125" class=" "></rect><text y="15" x="0"><tspan class="title" x="8.7421875">DivaRestApiModel</tspan></text><line x1="0" y1="21.0625" y2="21.0625" x2="100.375"></line><text x="5" y="31.0625" fill="white" class="classText"><tspan x="5">+string httpMethod</tspan><tspan x="5" dy="10">+string urlPath</tspan></text><line x1="0" y1="47.125" y2="47.125" x2="100.375"></line><text x="5" y="62.125" fill="white" class="classText"></text></g><g id="classid-DivaEntryMethodModel-7" class="classGroup" transform="translate(195.3359375,604.90625 )"><rect x="0" y="0" width="117.34375" height="30.0625" class=" "></rect><text y="15" x="0"><tspan class="title" x="5">DivaEntryMethodModel</tspan></text><line x1="0" y1="21.0625" y2="21.0625" x2="117.34375"></line><text x="5" y="31.0625" fill="white" class="classText"></text><line x1="0" y1="26.0625" y2="26.0625" x2="117.34375"></line><text x="5" y="41.0625" fill="white" class="classText"></text></g><g id="classid-JavaMethodModel-8" class="classGroup" transform="translate(878.28515625,231.09375 )"><rect x="0" y="0" width="108.015625" height="41.0625" class=" "></rect><text y="15" x="0"><tspan class="title" x="12.2890625">JavaMethodModel</tspan></text><line x1="0" y1="21" y2="21" x2="108.015625"></line><text x="5" y="31" fill="white" class="classText"><tspan x="5">+string methodName</tspan></text><line x1="0" y1="37.0625" y2="37.0625" x2="108.015625"></line><text x="5" y="52.0625" fill="white" class="classText"></text></g><g id="classid-DivaSqlOpModel-9" class="classGroup" transform="translate(716.375,599.375 )"><rect x="0" y="0" width="84.390625" height="41.125" class=" "></rect><text y="15" x="0"><tspan class="title" x="5">DivaSqlOpModel</tspan></text><line x1="0" y1="21.0625" y2="21.0625" x2="84.390625"></line><text x="5" y="31.0625" fill="white" class="classText"><tspan x="5">+string sql</tspan></text><line x1="0" y1="37.125" y2="37.125" x2="84.390625"></line><text x="5" y="52.125" fill="white" class="classText"></text></g><g id="classid-DivaOpModel-10" class="classGroup" transform="translate(622.10546875,498.28125 )"><rect x="0" y="0" width="70.484375" height="41.0625" class=" "></rect><text y="15" x="0"><tspan class="title" x="5">DivaOpModel</tspan></text><line x1="0" y1="21.0625" y2="21.0625" x2="70.484375"></line><text x="5" y="31.0625" fill="white" class="classText"><tspan x="5">+int ordinal</tspan></text><line x1="0" y1="37.0625" y2="37.0625" x2="70.484375"></line><text x="5" y="52.0625" fill="white" class="classText"></text></g><g id="classid-DivaStackTraceModel-11" class="classGroup" transform="translate(602.73828125,387.71875 )"><rect x="0" y="0" width="109.21875" height="30" class=" "></rect><text y="15" x="0"><tspan class="title" x="5">DivaStackTraceModel</tspan></text><line x1="0" y1="21" y2="21" x2="109.21875"></line><text x="5" y="31" fill="white" class="classText"></text><line x1="0" y1="26" y2="26" x2="109.21875"></line><text x="5" y="41" fill="white" class="classText"></text></g><g id="classid-FileLocationModel-12" class="classGroup" transform="translate(580.73828125,216.09375 )"><rect x="0" y="0" width="153.21875" height="71.0625" class=" "></rect><text y="15" x="0"><tspan class="title" x="33.96875">FileLocationModel</tspan></text><line x1="0" y1="21" y2="21" x2="153.21875"></line><text x="5" y="31" fill="white" class="classText"><tspan x="5">+int lineNumber</tspan><tspan x="5" dy="10">+int startPosition</tspan><tspan x="5" dy="10">+int length</tspan><tspan x="5" dy="10">+string referenceSourceSnippit</tspan></text><line x1="0" y1="67.0625" y2="67.0625" x2="153.21875"></line><text x="5" y="82.0625" fill="white" class="classText"></text></g><g id="classid-DivaRestCallOpModel-13" class="classGroup" transform="translate(558.421875,604.90625 )"><rect x="0" y="0" width="107.953125" height="30.0625" class=" "></rect><text y="15" x="0"><tspan class="title" x="5">DivaRestCallOpModel</tspan></text><line x1="0" y1="21.0625" y2="21.0625" x2="107.953125"></line><text x="5" y="31.0625" fill="white" class="classText"></text><line x1="0" y1="26.0625" y2="26.0625" x2="107.953125"></line><text x="5" y="41.0625" fill="white" class="classText"></text></g><g id="classid-DivaRequestParamModel-14" class="classGroup" transform="translate(0.6953125,594.375 )"><rect x="0" y="0" width="124.640625" height="51.125" class=" "></rect><text y="15" x="0"><tspan class="title" x="5">DivaRequestParamModel</tspan></text><line x1="0" y1="21.0625" y2="21.0625" x2="124.640625"></line><text x="5" y="31.0625" fill="white" class="classText"><tspan x="5">+string paramName</tspan><tspan x="5" dy="10">+string paramValue</tspan></text><line x1="0" y1="47.125" y2="47.125" x2="124.640625"></line><text x="5" y="62.125" fill="white" class="classText"></text></g><g id="classid-DivaTxModel-15" class="classGroup" transform="translate(857.66015625,599.4375 )"><rect x="0" y="0" width="69.265625" height="41" class=" "></rect><text y="15" x="0"><tspan class="title" x="5">DivaTxModel</tspan></text><line x1="0" y1="21" y2="21" x2="69.265625"></line><text x="5" y="31" fill="white" class="classText"><tspan x="5">+int txid</tspan></text><line x1="0" y1="37" y2="37" x2="69.265625"></line><text x="5" y="52" fill="white" class="classText"></text></g><g id="classid-FileModel-16" class="classGroup" transform="translate(1090.41015625,0 )"><rect x="0" y="0" width="138.3125" height="141.0625" class=" "></rect><text y="15" x="0"><tspan class="title" x="46.5859375">FileModel</tspan></text><line x1="0" y1="21" y2="21" x2="138.3125"></line><text x="5" y="31" fill="white" class="classText"><tspan x="5">+string fileName</tspan><tspan x="5" dy="10">+string filePath</tspan><tspan x="5" dy="10">+string cachedPrettyPath</tspan><tspan x="5" dy="10">+boolean isDirectory</tspan><tspan x="5" dy="10">+string md5Hash</tspan><tspan x="5" dy="10">+string sha1Hash</tspan><tspan x="5" dy="10">+string parseError</tspan><tspan x="5" dy="10">OnParseError onParseError</tspan><tspan x="5" dy="10">+long size</tspan><tspan x="5" dy="10">+long directorySize</tspan><tspan x="5" dy="10">+boolean windupGenerated</tspan></text><line x1="0" y1="137.0625" y2="137.0625" x2="138.3125"></line><text x="5" y="152.0625" fill="white" class="classText"></text></g><g id="classid-JavaClassModel-17" class="classGroup" transform="translate(953.65234375,362.1875 )"><rect x="0" y="0" width="113.546875" height="81.0625" class=" "></rect><text y="15" x="0"><tspan class="title" x="20.8359375">JavaClassModel</tspan></text><line x1="0" y1="21" y2="21" x2="113.546875"></line><text x="5" y="31" fill="white" class="classText"><tspan x="5">+boolean isPublic</tspan><tspan x="5" dy="10">+boolean isInterface</tspan><tspan x="5" dy="10">+string className</tspan><tspan x="5" dy="10">+string qualifiedName</tspan><tspan x="5" dy="10">+string packageName</tspan></text><line x1="0" y1="77.0625" y2="77.0625" x2="113.546875"></line><text x="5" y="92.0625" fill="white" class="classText"></text></g><g id="classid-AbstractJavaSourceModel-18" class="classGroup" transform="translate(945.52734375,498.28125 )"><rect x="0" y="0" width="129.796875" height="41.0625" class=" "></rect><text y="15" x="0"><tspan class="title" x="5">AbstractJavaSourceModel</tspan></text><line x1="0" y1="21" y2="21" x2="129.796875"></line><text x="5" y="31" fill="white" class="classText"><tspan x="5">+string packageName</tspan></text><line x1="0" y1="37.0625" y2="37.0625" x2="129.796875"></line><text x="5" y="52.0625" fill="white" class="classText"></text></g><path d="M312.08203125,413.8931989087612L268.904296875,422.952665757301C225.7265625,432.0121326058408,139.37109375,450.1310663029204,96.193359375,465.1176164847936C53.015625,480.1041666666667,53.015625,491.9583333333333,53.015625,497.8854166666667L53.015625,503.8125" id="edge0" class="relation" marker-start="url(#dependencyStart)"></path><path d="M522.7890625,725.5L522.7890625,729.6666666666666C522.7890625,733.8333333333334,522.7890625,742.1666666666666,517.6771797839506,750.5C512.5652970679013,758.8333333333334,502.3415316358025,767.1666666666666,497.22964891975306,771.3333333333334L492.1177662037037,775.5" id="edge1" class="relation" marker-start="url(#aggregationStart)"></path><g class="classLabel"><rect class="box" x="495.515625" y="743.59375" width="43.25" height="16.015625"></rect><text class="label" x="517.1425252702768" y="755.1024605344159" fill="red" text-anchor="middle">contexts</text></g><path d="M1153.3046875,312.1875L1153.3046875,316.3541666666667C1153.3046875,320.5208333333333,1153.3046875,328.8541666666667,1153.3046875,343.9427083333333C1153.3046875,359.03125,1153.3046875,380.875,1153.3046875,402.71875C1153.3046875,424.5625,1153.3046875,446.40625,1153.3046875,465.7552083333333C1153.3046875,485.1041666666667,1153.3046875,501.9583333333333,1153.3046875,518.8125C1153.3046875,535.6666666666666,1153.3046875,552.5208333333334,1153.3046875,569.375C1153.3046875,586.2291666666666,1153.3046875,603.0833333333334,1153.3046875,619.9375C1153.3046875,636.7916666666666,1153.3046875,653.6458333333334,1153.3046875,668.7395833333334C1153.3046875,683.8333333333334,1153.3046875,697.1666666666666,1153.3046875,710.5C1153.3046875,723.8333333333334,1153.3046875,737.1666666666666,1047.0455729166667,750.8865555394317C940.7864583333334,764.6064444121965,728.2682291666666,778.712888824393,622.0091145833334,785.7661110304913L515.75,792.8193332365896" id="edge2" class="relation" marker-start="url(#dependencyStart)"></path><path d="M398.1183849660074,539.375L394.9879770550062,544.375C391.8575691440049,549.375,385.5967533220025,559.375,382.4663454110012,572.8020833333334C379.3359375,586.2291666666666,379.3359375,603.0833333333334,379.3359375,619.9375C379.3359375,636.7916666666666,379.3359375,653.6458333333334,379.3359375,668.7395833333334C379.3359375,683.8333333333334,379.3359375,697.1666666666666,379.3359375,710.5C379.3359375,723.8333333333334,379.3359375,737.1666666666666,387.3427676326017,748C395.3495977652035,758.8333333333334,411.363258030407,767.1666666666666,419.3700881630087,771.3333333333334L427.37691829561044,775.5" id="edge3" class="relation" marker-start="url(#dependencyStart)"></path><path d="M339.80302590009535,417.75L325.5038236667461,426.1666666666667C311.2046214333969,434.5833333333333,282.60621696669847,451.4166666666667,268.3070147333492,464C254.0078125,476.5833333333333,254.0078125,484.9166666666667,254.0078125,489.0833333333333L254.0078125,493.25" id="edge4" class="relation" marker-start="url(#dependencyStart)"></path><path d="M50.04899953646477,533.8125L48.87677044705398,539.7395833333334C47.70454135764319,545.6666666666666,45.36008317882159,557.5208333333334,69.57457283941079,569.5316299169351C93.7890625,581.5424265005369,144.5625,593.7098530010738,169.94921875,599.7935662513422L195.3359375,605.8772795016107" id="edge5" class="relation" marker-start="url(#dependencyStart)"></path><path d="M914.6224462426954,272.15625L905.2940958272462,282.9947916666667C895.9657454117969,293.8333333333333,877.3090445808984,315.5104166666667,867.9806941654492,337.2708333333333C858.65234375,359.03125,858.65234375,380.875,858.65234375,402.71875C858.65234375,424.5625,858.65234375,446.40625,858.65234375,465.7552083333333C858.65234375,485.1041666666667,858.65234375,501.9583333333333,858.65234375,518.8125C858.65234375,535.6666666666666,858.65234375,552.5208333333334,767.6569010416666,568.5572752801125C676.6614583333334,584.5937172268917,494.6705729166667,599.8124344537833,403.6751302083333,607.4217930672291L312.6796875,615.031151680675" id="edge6" class="relation" marker-start="url(#dependencyStart)"></path><path d="M254.0078125,544.375L254.0078125,548.5416666666666C254.0078125,552.7083333333334,254.0078125,561.0416666666666,254.0078125,571.1302083333334C254.0078125,581.21875,254.0078125,593.0625,254.0078125,598.984375L254.0078125,604.90625" id="edge7" class="relation" marker-start="url(#dependencyStart)"></path><path d="M627.5373725278121,539.34375L620.2700760648435,544.3489583333334C613.0027796018747,549.3541666666666,598.4681866759373,559.3645833333334,613.2744579213021,570.7607429811513C628.0807291666666,582.1569026289694,672.2278645833334,594.9388052579387,694.3014322916666,601.3297565724234L716.375,607.7207078869081" id="edge8" class="relation" marker-start="url(#dependencyStart)"></path><path d="M657.34765625,417.71875L657.34765625,426.140625C657.34765625,434.5625,657.34765625,451.40625,657.34765625,464.8333333333333C657.34765625,478.2604166666667,657.34765625,488.2708333333333,657.34765625,493.2760416666667L657.34765625,498.28125" id="edge9" class="relation" marker-start="url(#aggregationStart)"></path><g class="classLabel"><rect class="box" x="631.453125" y="446.5" width="51.78125" height="16"></rect><text class="label" x="657.34765625" y="458" fill="red" text-anchor="middle">stacktrace</text></g><path d="M657.34765625,287.15625L657.34765625,295.4947916666667C657.34765625,303.8333333333333,657.34765625,320.5104166666667,657.34765625,337.2708333333333C657.34765625,354.03125,657.34765625,370.875,657.34765625,379.296875L657.34765625,387.71875" id="edge10" class="relation" marker-start="url(#dependencyStart)"></path><path d="M711.95703125,396.8287417609168L726.0342881944445,395.31040980076403C740.111545138889,393.79207784061117,768.2660590277778,390.75541392030556,785.8626302083334,389.2370819601528C803.459201388889,387.71875,810.497829861111,387.71875,817.5364583333334,390.21875C824.5750868055555,392.71875,831.6137152777777,397.71875,831.6137152777777,402.71875C831.6137152777777,407.71875,824.5750868055555,412.71875,817.5364583333334,415.21875C810.497829861111,417.71875,803.459201388889,417.71875,785.8626302083334,416.2004180398472C768.2660590277778,414.68208607969444,740.111545138889,411.64542215938883,726.0342881944445,410.1270901992361L711.95703125,408.6087582390832" id="edge11" class="relation" marker-start="url(#aggregationStart)"></path><g class="classLabel"><rect class="box" x="821.34375" y="391.21875" width="34.609375" height="16.0625"></rect><text class="label" x="838.65234375" y="402.71875" fill="red" text-anchor="middle">parent</text></g><path d="M919.4215696904675,272.15625L912.6266987003896,282.9947916666667C905.8318277103117,293.8333333333333,892.2420857301558,315.5104166666667,857.0058159411986,334.7708333333333C821.7695461522413,354.03125,764.8867485544826,370.875,736.4453497556033,379.296875L708.0039509567239,387.71875" id="edge12" class="relation" marker-start="url(#aggregationStart)"></path><g class="classLabel"><rect class="box" x="810.5625" y="340.046875" width="39.125" height="16.015625"></rect><text class="label" x="830.1258289941375" y="351.55684393942795" fill="red" text-anchor="middle">method</text></g><path d="M360.1009477825465,417.75L357.1674564854554,426.1666666666667C354.23396518836427,434.5833333333333,348.36698259418216,451.4166666666667,392.0344027554244,467.3171387193294C435.7018229166667,483.21761077199204,528.9036458333334,498.18522154398414,575.5045572916666,505.6690269299802L622.10546875,513.1528323159762" id="edge13" class="relation" marker-start="url(#dependencyStart)"></path><path d="M375.8113637041011,417.75L381.67483433675096,426.1666666666667C387.5383049694007,434.5833333333333,399.2652462347003,451.4166666666667,405.1287168673502,464.8333333333333C410.9921875,478.25,410.9921875,488.25,410.9921875,493.25L410.9921875,498.25" id="edge14" class="relation" marker-start="url(#dependencyStart)"></path><path d="M429.65793031520394,539.375L434.19671276266996,544.375C438.7354952101359,549.375,447.81306010506796,559.375,470.56490217475283,570.296875C493.3167442444376,581.21875,529.7428634888752,593.0625,547.955923111094,598.984375L566.1689827333128,604.90625" id="edge15" class="relation" marker-start="url(#aggregationStart)"></path><g class="classLabel"><rect class="box" x="469.90625" y="569.375" width="44.71875" height="16.0625"></rect><text class="label" x="492.2641430844699" y="580.8765025894343" fill="red" text-anchor="middle">endpoint</text></g><path d="M924.2206931382395,272.15625L919.959301573533,282.9947916666667C915.6979100088264,293.8333333333333,907.1751268794133,315.5104166666667,902.9137353147066,337.2708333333333C898.65234375,359.03125,898.65234375,380.875,898.65234375,402.71875C898.65234375,424.5625,898.65234375,446.40625,898.65234375,465.7552083333333C898.65234375,485.1041666666667,898.65234375,501.9583333333333,898.65234375,518.8125C898.65234375,535.6666666666666,898.65234375,552.5208333333334,859.939453125,567.7859736834923C821.2265625,583.0511140336513,743.80078125,596.7272280673026,705.087890625,603.5652850841283L666.375,610.4033421009539" id="edge16" class="relation" marker-start="url(#aggregationStart)"></path><g class="classLabel"><rect class="box" x="859.828125" y="524.765625" width="77.640625" height="16.078125"></rect><text class="label" x="898.65234375" y="536.2792365531911" fill="red" text-anchor="middle">endpointMethod</text></g><path d="M639.3526754673981,539.34375L634.9657712228317,544.3489583333334C630.5788669782654,549.3541666666666,621.8050584891326,559.3645833333334,617.3440393071436,570.2916666666666C612.8830201251545,581.21875,612.7347902503091,593.0625,612.6606753128864,598.984375L612.5865603754636,604.90625" id="edge17" class="relation" marker-start="url(#dependencyStart)"></path><path d="M293.6905129789864,544.375L300.158760815822,548.5416666666666C306.6270086526576,552.7083333333334,319.56350432632877,561.0416666666666,363.6853979964978,572.0103093802626C407.8072916666667,582.9789520938584,483.1145833333333,596.582904187717,520.7682291666666,603.3848802346462L558.421875,610.1868562815754" id="edge18" class="relation" marker-start="url(#dependencyStart)"></path><path d="M55.98225046353523,533.8125L57.15447955294602,539.7395833333334C58.32670864235681,545.6666666666666,60.67116682117841,557.5208333333334,61.84339591058921,567.6145833333334C63.015625,577.7083333333334,63.015625,586.0416666666666,63.015625,590.2083333333334L63.015625,594.375" id="edge19" class="relation" marker-start="url(#dependencyStart)"></path><path d="M692.58984375,531.866954985119L709.4661458333334,538.1182958209325C726.3424479166666,544.369636656746,760.0950520833334,556.872318328373,787.6067708333334,568.5861158475185C815.1184895833334,580.299913366664,836.3893229166666,591.2248267333281,847.0247395833334,596.6872834166601L857.66015625,602.1497400999921" id="edge20" class="relation" marker-start="url(#aggregationStart)"></path><g class="classLabel"><rect class="box" x="749.109375" y="551.578125" width="55.484375" height="16.015625"></rect><text class="label" x="776.8539045767288" y="563.0801533408076" fill="red" text-anchor="middle">transaction</text></g><path d="M396.8672992668097,417.75L414.52092647234144,426.1666666666667C432.1745536778731,434.5833333333333,467.4818080889366,451.4166666666667,485.1354352944683,468.2604166666667C502.7890625,485.1041666666667,502.7890625,501.9583333333333,502.7890625,518.8125C502.7890625,535.6666666666666,502.7890625,552.5208333333334,561.9342447916666,568.625704313045C621.0794270833334,584.7305752927568,739.3697916666666,600.0861505855138,798.5149739583334,607.7639382318922L857.66015625,615.4417258782706" id="edge21" class="relation" marker-start="url(#dependencyStart)"></path><path d="M84.8535421817058,533.8125L97.4339414014215,539.7395833333334C110.0143406211372,545.6666666666666,135.1751390605686,557.5208333333334,147.7555382802843,571.875C160.3359375,586.2291666666666,160.3359375,603.0833333333334,160.3359375,619.9375C160.3359375,636.7916666666666,160.3359375,653.6458333333334,212.86848958333334,667.8703617385869C265.4010416666667,682.0948901438404,370.4661458333333,693.689780287681,422.9986979166667,699.4872253596012L475.53125,705.2846704315214" id="edge22" class="relation" marker-start="url(#aggregationStart)"></path><g class="classLabel"><rect class="box" x="199.0625" y="666.265625" width="54.28125" height="16.015625"></rect><text class="label" x="226.20782412900502" y="677.7695620024249" fill="red" text-anchor="middle">constraints</text></g><path d="M892.29296875,640.4375L892.29296875,645.4479166666666C892.29296875,650.4583333333334,892.29296875,660.4791666666666,838.5852864583334,671.3036146746235C784.8776041666666,682.1280626825804,677.4622395833334,693.756125365161,623.7545572916666,699.5701567064511L570.046875,705.3841880477414" id="edge23" class="relation" marker-start="url(#aggregationStart)"></path><g class="classLabel"><rect class="box" x="716.34375" y="674.8125" width="59.53125" height="16.015625"></rect><text class="label" x="746.1138646227053" y="686.3243636026292" fill="red" text-anchor="middle">transactions</text></g><path d="M401.45480522770623,417.75L421.6771814397552,426.1666666666667C441.8995576518041,434.5833333333333,482.34431007590206,451.4166666666667,502.5666862879511,468.2604166666667C522.7890625,485.1041666666667,522.7890625,501.9583333333333,522.7890625,518.8125C522.7890625,535.6666666666666,522.7890625,552.5208333333334,522.7890625,569.375C522.7890625,586.2291666666666,522.7890625,603.0833333333334,522.7890625,619.9375C522.7890625,636.7916666666666,522.7890625,653.6458333333334,522.7890625,666.2395833333334C522.7890625,678.8333333333334,522.7890625,687.1666666666666,522.7890625,691.3333333333334L522.7890625,695.5" id="edge24" class="relation" marker-start="url(#dependencyStart)"></path><path d="M929.0198165860116,272.15625L927.2919044466763,282.9947916666667C925.563992307341,293.8333333333333,922.1081680286705,315.5104166666667,920.3802558893353,337.2708333333333C918.65234375,359.03125,918.65234375,380.875,918.65234375,402.71875C918.65234375,424.5625,918.65234375,446.40625,880.9752604166666,464.6186468205918C843.2981770833334,482.8310436411836,767.9440104166666,497.4120872823671,730.2669270833334,504.7026091029589L692.58984375,511.99313092355067" id="edge25" class="relation" marker-start="url(#aggregationStart)"></path><g class="classLabel"><rect class="box" x="882.71875" y="459.90625" width="39.140625" height="16.015625"></rect><text class="label" x="902.2855388037243" y="471.41697944844964" fill="red" text-anchor="middle">method</text></g><path d="M1090.41015625,83.68604162777675L1018.2330729166666,97.41545135648062C946.0559895833334,111.1448610851845,801.7018229166666,138.60368054259223,729.5247395833334,160.6716319379628C657.34765625,182.73958333333334,657.34765625,199.41666666666666,657.34765625,207.75520833333334L657.34765625,216.09375" id="edge26" class="relation" marker-start="url(#aggregationStart)"></path><g class="classLabel"><rect class="box" x="839.328125" y="118.046875" width="19.953125" height="16.015625"></rect><text class="label" x="849.3039293800748" y="129.548883737251" fill="red" text-anchor="middle">file</text></g><path d="M951.0414193754565,272.15625L960.9388130212137,282.9947916666667C970.836206666971,293.8333333333333,990.6309939584854,315.5104166666667,1000.5283876042428,330.515625C1010.42578125,345.5208333333333,1010.42578125,353.8541666666667,1010.42578125,358.0208333333333L1010.42578125,362.1875" id="edge27" class="relation" marker-start="url(#aggregationStart)"></path><g class="classLabel"><rect class="box" x="960.65625" y="302.390625" width="57" height="16.078125"></rect><text class="label" x="989.1625868560225" y="313.9023780119146" fill="red" text-anchor="middle">javaMethod</text></g><path d="M1090.41015625,100.57717734055782L1065.2890625,111.49139778379818C1040.16796875,122.40561822703854,989.92578125,144.23405911351927,986.7662760416666,163.94464131397189C983.6067708333334,183.6552235144245,1027.5299479166667,201.247947028849,1049.4915364583333,210.04430878606126L1071.453125,218.84067054327355" id="edge28" class="relation" marker-start="url(#aggregationStart)"></path><g class="classLabel"><rect class="box" x="916.6875" y="150.09375" width="66.53125" height="16.015625"></rect><text class="label" x="949.95196402618" y="161.60125886526455" fill="red" text-anchor="middle">rootFileModel</text></g><path d="M1235.15625,204.49717604169243L1239.045138888889,202.25806336807705C1242.9340277777776,200.01895069446164,1250.7118055555554,195.54072534723082,1255.5729166666667,193.3016126736154C1260.4340277777776,191.0625,1262.3784722222224,191.0625,1264.3229166666667,201.15625C1266.267361111111,211.25,1268.2118055555557,231.4375,1268.2118055555557,251.625C1268.2118055555557,271.8125,1266.267361111111,292,1264.3229166666667,302.09375C1262.3784722222224,312.1875,1260.4340277777776,312.1875,1255.5729166666667,309.9483873263846C1250.7118055555554,307.7092746527692,1242.9340277777776,303.2310493055384,1239.045138888889,300.991936631923L1235.15625,298.7528239583076" id="edge29" class="relation" marker-start="url(#aggregationStart)"></path><g class="classLabel"><rect class="box" x="1236.421875" y="240.125" width="67.46875" height="16.0625"></rect><text class="label" x="1270.15625" y="251.625" fill="red" text-anchor="middle">parentProject</text></g><path d="M1198.079421972113,141.0625L1200.3545964350942,145.22916666666666C1202.6297708980753,149.39583333333334,1207.1801198240375,157.72916666666666,1206.6101138024803,166.0625C1206.0401077809229,174.39583333333334,1200.3497468118455,182.72916666666666,1197.504566327307,186.89583333333334L1194.6593858427684,191.0625" id="edge30" class="relation" marker-start="url(#aggregationStart)"></path><g class="classLabel"><rect class="box" x="1165.234375" y="155.296875" width="91.984375" height="16.0625"></rect><text class="label" x="1211.2262626742142" y="166.80089204947595" fill="red" text-anchor="middle">projectModelToFile</text></g><path d="M1228.72265625,121.12157783943047L1238.9615885416667,128.61173153285873C1249.2005208333333,136.10188522628698,1269.6783854166667,151.0821926131435,1279.9173177083333,172.83276297323843C1290.15625,194.58333333333334,1290.15625,223.10416666666666,1290.15625,251.625C1290.15625,280.1458333333333,1290.15625,308.6666666666667,1290.15625,333.8489583333333C1290.15625,359.03125,1290.15625,380.875,1290.15625,402.71875C1290.15625,424.5625,1290.15625,446.40625,1254.3509114583333,463.80009581570334C1218.5455729166667,481.1939416314067,1146.9348958333333,494.13788326281343,1111.1295572916667,500.6098540785168L1075.32421875,507.0818248942202" id="edge31" class="relation" marker-start="url(#dependencyStart)"></path><path d="M1010.42578125,443.25L1010.42578125,447.4166666666667C1010.42578125,451.5833333333333,1010.42578125,459.9166666666667,1010.42578125,469.0885416666667C1010.42578125,478.2604166666667,1010.42578125,488.2708333333333,1010.42578125,493.2760416666667L1010.42578125,498.28125" id="edge32" class="relation" marker-start="url(#aggregationStart)"></path><g class="classLabel"><rect class="box" x="987.234375" y="459.265625" width="46.375" height="16.0625"></rect><text class="label" x="1010.4257812500001" y="470.76562500000006" fill="red" text-anchor="middle">javaClass</text></g></svg>