<svg id="mermaid-1635731695635" width="100%" xmlns="http://www.w3.org/2000/svg" xmlns:xlink="http://www.w3.org/1999/xlink" height="857.75" style="max-width: 1739.109375px;" viewBox="-75 -20 1739.109375 857.75"><style>#mermaid-1635731695635{font-family:"trebuchet ms",verdana,arial,sans-serif;font-size:16px;fill:#333;}#mermaid-1635731695635 .error-icon{fill:#552222;}#mermaid-1635731695635 .error-text{fill:#552222;stroke:#552222;}#mermaid-1635731695635 .edge-thickness-normal{stroke-width:2px;}#mermaid-1635731695635 .edge-thickness-thick{stroke-width:3.5px;}#mermaid-1635731695635 .edge-pattern-solid{stroke-dasharray:0;}#mermaid-1635731695635 .edge-pattern-dashed{stroke-dasharray:3;}#mermaid-1635731695635 .edge-pattern-dotted{stroke-dasharray:2;}#mermaid-1635731695635 .marker{fill:#333333;stroke:#333333;}#mermaid-1635731695635 .marker.cross{stroke:#333333;}#mermaid-1635731695635 svg{font-family:"trebuchet ms",verdana,arial,sans-serif;font-size:16px;}#mermaid-1635731695635 g.classGroup text{fill:#9370DB;fill:#131300;stroke:none;font-family:"trebuchet ms",verdana,arial,sans-serif;font-size:10px;}#mermaid-1635731695635 g.classGroup text .title{font-weight:bolder;}#mermaid-1635731695635 .classTitle{font-weight:bolder;}#mermaid-1635731695635 .node rect,#mermaid-1635731695635 .node circle,#mermaid-1635731695635 .node ellipse,#mermaid-1635731695635 .node polygon,#mermaid-1635731695635 .node path{fill:#ECECFF;stroke:#9370DB;stroke-width:1px;}#mermaid-1635731695635 .divider{stroke:#9370DB;stroke:1;}#mermaid-1635731695635 g.clickable{cursor:pointer;}#mermaid-1635731695635 g.classGroup rect{fill:#ECECFF;stroke:#9370DB;}#mermaid-1635731695635 g.classGroup line{stroke:#9370DB;stroke-width:1;}#mermaid-1635731695635 .classLabel .box{stroke:none;stroke-width:0;fill:#ECECFF;opacity:0.5;}#mermaid-1635731695635 .classLabel .label{fill:#9370DB;font-size:10px;}#mermaid-1635731695635 .relation{stroke:#333333;stroke-width:1;fill:none;}#mermaid-1635731695635 .dashed-line{stroke-dasharray:3;}#mermaid-1635731695635 #compositionStart,#mermaid-1635731695635 .composition{fill:#333333 !important;stroke:#333333 !important;stroke-width:1;}#mermaid-1635731695635 #compositionEnd,#mermaid-1635731695635 .composition{fill:#333333 !important;stroke:#333333 !important;stroke-width:1;}#mermaid-1635731695635 #dependencyStart,#mermaid-1635731695635 .dependency{fill:#333333 !important;stroke:#333333 !important;stroke-width:1;}#mermaid-1635731695635 #dependencyStart,#mermaid-1635731695635 .dependency{fill:#333333 !important;stroke:#333333 !important;stroke-width:1;}#mermaid-1635731695635 #extensionStart,#mermaid-1635731695635 .extension{fill:#333333 !important;stroke:#333333 !important;stroke-width:1;}#mermaid-1635731695635 #extensionEnd,#mermaid-1635731695635 .extension{fill:#333333 !important;stroke:#333333 !important;stroke-width:1;}#mermaid-1635731695635 #aggregationStart,#mermaid-1635731695635 .aggregation{fill:#ECECFF !important;stroke:#333333 !important;stroke-width:1;}#mermaid-1635731695635 #aggregationEnd,#mermaid-1635731695635 .aggregation{fill:#ECECFF !important;stroke:#333333 !important;stroke-width:1;}#mermaid-1635731695635 .edgeTerminals{font-size:11px;}#mermaid-1635731695635:root{--mermaid-font-family:"trebuchet ms",verdana,arial,sans-serif;}</style><g></g><defs><marker id="extensionStart" class="extension" refX="0" refY="7" markerWidth="190" markerHeight="240" orient="auto"><path d="M 1,7 L18,13 V 1 Z"></path></marker></defs><defs><marker id="extensionEnd" refX="19" refY="7" markerWidth="20" markerHeight="28" orient="auto"><path d="M 1,1 V 13 L18,7 Z"></path></marker></defs><defs><marker id="compositionStart" class="extension" refX="0" refY="7" markerWidth="190" markerHeight="240" orient="auto"><path d="M 18,7 L9,13 L1,7 L9,1 Z"></path></marker></defs><defs><marker id="compositionEnd" refX="19" refY="7" markerWidth="20" markerHeight="28" orient="auto"><path d="M 18,7 L9,13 L1,7 L9,1 Z"></path></marker></defs><defs><marker id="aggregationStart" class="extension" refX="0" refY="7" markerWidth="190" markerHeight="240" orient="auto"><path d="M 18,7 L9,13 L1,7 L9,1 Z"></path></marker></defs><defs><marker id="aggregationEnd" refX="19" refY="7" markerWidth="20" markerHeight="28" orient="auto"><path d="M 18,7 L9,13 L1,7 L9,1 Z"></path></marker></defs><defs><marker id="dependencyStart" class="extension" refX="0" refY="7" markerWidth="190" markerHeight="240" orient="auto"><path d="M 5,7 L9,13 L1,7 L9,1 Z"></path></marker></defs><defs><marker id="dependencyEnd" refX="19" refY="7" markerWidth="20" markerHeight="28" orient="auto"><path d="M 18,7 L9,13 L14,7 L9,1 Z"></path></marker></defs><g id="classid-DivaConstraintModel-0" class="classGroup" transform="translate(557.65625,503.8125 )"><rect x="0" y="0" width="106.03125" height="30" class=" "></rect><text y="15" x="0"><tspan class="title" x="5">DivaConstraintModel</tspan></text><line x1="0" y1="21" y2="21" x2="106.03125"></line><text x="5" y="31" fill="white" class="classText"></text><line x1="0" y1="26" y2="26" x2="106.03125"></line><text x="5" y="41" fill="white" class="classText"></text></g><g id="classid-WindupVertexFrame-1" class="classGroup" transform="translate(106.3828125,387.6875 )"><rect x="0" y="0" width="106.515625" height="30.0625" class=" "></rect><text y="15" x="0"><tspan class="title" x="5">WindupVertexFrame</tspan></text><line x1="0" y1="21.0625" y2="21.0625" x2="106.515625"></line><text x="5" y="31.0625" fill="white" class="classText"></text><line x1="0" y1="26.0625" y2="26.0625" x2="106.515625"></line><text x="5" y="41.0625" fill="white" class="classText"></text></g><g id="classid-DivaAppModel-2" class="classGroup" transform="translate(581.6015625,776.625 )"><rect x="0" y="0" width="97.71875" height="41.125" class=" "></rect><text y="15" x="0"><tspan class="title" x="16.0546875">DivaAppModel</tspan></text><line x1="0" y1="21.0625" y2="21.0625" x2="97.71875"></line><text x="5" y="31.0625" fill="white" class="classText"><tspan x="5">+string datasource</tspan></text><line x1="0" y1="37.125" y2="37.125" x2="97.71875"></line><text x="5" y="52.125" fill="white" class="classText"></text></g><g id="classid-DivaContextModel-3" class="classGroup" transform="translate(286.4375,691.0625 )"><rect x="0" y="0" width="94.515625" height="30" class=" "></rect><text y="15" x="0"><tspan class="title" x="5">DivaContextModel</tspan></text><line x1="0" y1="21" y2="21" x2="94.515625"></line><text x="5" y="31" fill="white" class="classText"></text><line x1="0" y1="26" y2="26" x2="94.515625"></line><text x="5" y="41" fill="white" class="classText"></text></g><g id="classid-ProjectModel-4" class="classGroup" transform="translate(1257.1875,191.0625 )"><rect x="0" y="0" width="163.703125" height="121.125" class=" "></rect><text y="15" x="0"><tspan class="title" x="50.890625">ProjectModel</tspan></text><line x1="0" y1="21.0625" y2="21.0625" x2="163.703125"></line><text x="5" y="31.0625" fill="white" class="classText"><tspan x="5">+string projectModelCsvFilename</tspan><tspan x="5" dy="10">+boolean sourceBased</tspan><tspan x="5" dy="10">+string organization</tspan><tspan x="5" dy="10">+string projectType</tspan><tspan x="5" dy="10">+string version</tspan><tspan x="5" dy="10">+string name</tspan><tspan x="5" dy="10">+string uniqueID</tspan><tspan x="5" dy="10">+string description</tspan><tspan x="5" dy="10">+string url</tspan></text><line x1="0" y1="117.125" y2="117.125" x2="163.703125"></line><text x="5" y="132.125" fill="white" class="classText"></text></g><g id="classid-DivaEndpointModel-5" class="classGroup" transform="translate(102.84375,685.5 )"><rect x="0" y="0" width="113.59375" height="41.125" class=" "></rect><text y="15" x="0"><tspan class="title" x="12.1171875">DivaEndpointModel</tspan></text><line x1="0" y1="21.0625" y2="21.0625" x2="113.59375"></line><text x="5" y="31.0625" fill="white" class="classText"><tspan x="5">+string endpointName</tspan></text><line x1="0" y1="37.125" y2="37.125" x2="113.59375"></line><text x="5" y="52.125" fill="white" class="classText"></text></g><g id="classid-DivaRestApiModel-6" class="classGroup" transform="translate(201.25,493.25 )"><rect x="0" y="0" width="100.375" height="51.125" class=" "></rect><text y="15" x="0"><tspan class="title" x="8.7421875">DivaRestApiModel</tspan></text><line x1="0" y1="21.0625" y2="21.0625" x2="100.375"></line><text x="5" y="31.0625" fill="white" class="classText"><tspan x="5">+string httpMethod</tspan><tspan x="5" dy="10">+string urlPath</tspan></text><line x1="0" y1="47.125" y2="47.125" x2="100.375"></line><text x="5" y="62.125" fill="white" class="classText"></text></g><g id="classid-DivaEntryMethodModel-7" class="classGroup" transform="translate(701.02734375,599.90625 )"><rect x="0" y="0" width="117.34375" height="30.0625" class=" "></rect><text y="15" x="0"><tspan class="title" x="5">DivaEntryMethodModel</tspan></text><line x1="0" y1="21.0625" y2="21.0625" x2="117.34375"></line><text x="5" y="31.0625" fill="white" class="classText"></text><line x1="0" y1="26.0625" y2="26.0625" x2="117.34375"></line><text x="5" y="41.0625" fill="white" class="classText"></text></g><g id="classid-JavaMethodModel-8" class="classGroup" transform="translate(1042.796875,231.09375 )"><rect x="0" y="0" width="108.015625" height="41.0625" class=" "></rect><text y="15" x="0"><tspan class="title" x="12.2890625">JavaMethodModel</tspan></text><line x1="0" y1="21" y2="21" x2="108.015625"></line><text x="5" y="31" fill="white" class="classText"><tspan x="5">+string methodName</tspan></text><line x1="0" y1="37.0625" y2="37.0625" x2="108.015625"></line><text x="5" y="52.0625" fill="white" class="classText"></text></g><g id="classid-DivaSqlOpModel-9" class="classGroup" transform="translate(980.4296875,594.375 )"><rect x="0" y="0" width="84.390625" height="41.125" class=" "></rect><text y="15" x="0"><tspan class="title" x="5">DivaSqlOpModel</tspan></text><line x1="0" y1="21.0625" y2="21.0625" x2="84.390625"></line><text x="5" y="31.0625" fill="white" class="classText"><tspan x="5">+string sql</tspan></text><line x1="0" y1="37.125" y2="37.125" x2="84.390625"></line><text x="5" y="52.125" fill="white" class="classText"></text></g><g id="classid-DivaOpModel-10" class="classGroup" transform="translate(906.5,498.28125 )"><rect x="0" y="0" width="70.484375" height="41.0625" class=" "></rect><text y="15" x="0"><tspan class="title" x="5">DivaOpModel</tspan></text><line x1="0" y1="21.0625" y2="21.0625" x2="70.484375"></line><text x="5" y="31.0625" fill="white" class="classText"><tspan x="5">+int ordinal</tspan></text><line x1="0" y1="37.0625" y2="37.0625" x2="70.484375"></line><text x="5" y="52.0625" fill="white" class="classText"></text></g><g id="classid-DivaStackTraceModel-11" class="classGroup" transform="translate(1174.8203125,387.71875 )"><rect x="0" y="0" width="109.21875" height="30" class=" "></rect><text y="15" x="0"><tspan class="title" x="5">DivaStackTraceModel</tspan></text><line x1="0" y1="21" y2="21" x2="109.21875"></line><text x="5" y="31" fill="white" class="classText"></text><line x1="0" y1="26" y2="26" x2="109.21875"></line><text x="5" y="41" fill="white" class="classText"></text></g><g id="classid-FileLocationModel-12" class="classGroup" transform="translate(1490.890625,216.09375 )"><rect x="0" y="0" width="153.21875" height="71.0625" class=" "></rect><text y="15" x="0"><tspan class="title" x="33.96875">FileLocationModel</tspan></text><line x1="0" y1="21" y2="21" x2="153.21875"></line><text x="5" y="31" fill="white" class="classText"><tspan x="5">+int lineNumber</tspan><tspan x="5" dy="10">+int startPosition</tspan><tspan x="5" dy="10">+int length</tspan><tspan x="5" dy="10">+string referenceSourceSnippit</tspan></text><line x1="0" y1="67.0625" y2="67.0625" x2="153.21875"></line><text x="5" y="82.0625" fill="white" class="classText"></text></g><g id="classid-DivaRequestConstraintModel-13" class="classGroup" transform="translate(412.015625,599.90625 )"><rect x="0" y="0" width="143.65625" height="30.0625" class=" "></rect><text y="15" x="0"><tspan class="title" x="5">DivaRequestConstraintModel</tspan></text><line x1="0" y1="21.0625" y2="21.0625" x2="143.65625"></line><text x="5" y="31.0625" fill="white" class="classText"></text><line x1="0" y1="26.0625" y2="26.0625" x2="143.65625"></line><text x="5" y="41.0625" fill="white" class="classText"></text></g><g id="classid-DivaRequestParamModel-14" class="classGroup" transform="translate(0,493.25 )"><rect x="0" y="0" width="124.640625" height="51.125" class=" "></rect><text y="15" x="0"><tspan class="title" x="5">DivaRequestParamModel</tspan></text><line x1="0" y1="21.0625" y2="21.0625" x2="124.640625"></line><text x="5" y="31.0625" fill="white" class="classText"><tspan x="5">+string paramName</tspan><tspan x="5" dy="10">+string paramValue</tspan></text><line x1="0" y1="47.125" y2="47.125" x2="124.640625"></line><text x="5" y="62.125" fill="white" class="classText"></text></g><g id="classid-DivaRestCallOpModel-15" class="classGroup" transform="translate(151.5625,782.15625 )"><rect x="0" y="0" width="107.953125" height="30.0625" class=" "></rect><text y="15" x="0"><tspan class="title" x="5">DivaRestCallOpModel</tspan></text><line x1="0" y1="21.0625" y2="21.0625" x2="107.953125"></line><text x="5" y="31.0625" fill="white" class="classText"></text><line x1="0" y1="26.0625" y2="26.0625" x2="107.953125"></line><text x="5" y="41.0625" fill="white" class="classText"></text></g><g id="classid-DivaTxModel-16" class="classGroup" transform="translate(292.75,594.4375 )"><rect x="0" y="0" width="69.265625" height="41" class=" "></rect><text y="15" x="0"><tspan class="title" x="5">DivaTxModel</tspan></text><line x1="0" y1="21" y2="21" x2="69.265625"></line><text x="5" y="31" fill="white" class="classText"><tspan x="5">+int txid</tspan></text><line x1="0" y1="37" y2="37" x2="69.265625"></line><text x="5" y="52" fill="white" class="classText"></text></g><g id="classid-FileModel-17" class="classGroup" transform="translate(1307.7578125,0 )"><rect x="0" y="0" width="138.3125" height="141.0625" class=" "></rect><text y="15" x="0"><tspan class="title" x="46.5859375">FileModel</tspan></text><line x1="0" y1="21" y2="21" x2="138.3125"></line><text x="5" y="31" fill="white" class="classText"><tspan x="5">+string fileName</tspan><tspan x="5" dy="10">+string filePath</tspan><tspan x="5" dy="10">+string cachedPrettyPath</tspan><tspan x="5" dy="10">+boolean isDirectory</tspan><tspan x="5" dy="10">+string md5Hash</tspan><tspan x="5" dy="10">+string sha1Hash</tspan><tspan x="5" dy="10">+string parseError</tspan><tspan x="5" dy="10">OnParseError onParseError</tspan><tspan x="5" dy="10">+long size</tspan><tspan x="5" dy="10">+long directorySize</tspan><tspan x="5" dy="10">+boolean windupGenerated</tspan></text><line x1="0" y1="137.0625" y2="137.0625" x2="138.3125"></line><text x="5" y="152.0625" fill="white" class="classText"></text></g><g id="classid-JavaClassModel-18" class="classGroup" transform="translate(796.296875,362.1875 )"><rect x="0" y="0" width="113.546875" height="81.0625" class=" "></rect><text y="15" x="0"><tspan class="title" x="20.8359375">JavaClassModel</tspan></text><line x1="0" y1="21" y2="21" x2="113.546875"></line><text x="5" y="31" fill="white" class="classText"><tspan x="5">+boolean isPublic</tspan><tspan x="5" dy="10">+boolean isInterface</tspan><tspan x="5" dy="10">+string className</tspan><tspan x="5" dy="10">+string qualifiedName</tspan><tspan x="5" dy="10">+string packageName</tspan></text><line x1="0" y1="77.0625" y2="77.0625" x2="113.546875"></line><text x="5" y="92.0625" fill="white" class="classText"></text></g><g id="classid-AbstractJavaSourceModel-19" class="classGroup" transform="translate(713.6875,498.28125 )"><rect x="0" y="0" width="129.796875" height="41.0625" class=" "></rect><text y="15" x="0"><tspan class="title" x="5">AbstractJavaSourceModel</tspan></text><line x1="0" y1="21" y2="21" x2="129.796875"></line><text x="5" y="31" fill="white" class="classText"><tspan x="5">+string packageName</tspan></text><line x1="0" y1="37.0625" y2="37.0625" x2="129.796875"></line><text x="5" y="52.0625" fill="white" class="classText"></text></g><path d="M212.8984375,410.03146638511026L283.5651041666667,419.7345553209252C354.2317708333333,429.43764425674016,495.5651041666667,448.84382212837005,563.1574168855583,464.4739943975184C630.74972960445,480.1041666666667,624.6010217088999,491.9583333333333,621.5266677611249,497.8854166666667L618.4523138133499,503.8125" id="edge0" class="relation" marker-start="url(#dependencyStart)"></path><path d="M380.953125,711.238374672526L442.4108072916667,717.9694788937717C503.8684895833333,724.7005831150173,626.7838541666666,738.1627915575086,676.51171875,749.3760118721203C726.2395833333334,760.5892321867323,702.7799479166666,769.5534643734644,691.0501302083334,774.0355804668305L679.3203125,778.5176965601966" id="edge1" class="relation" marker-start="url(#aggregationStart)"></path><g class="classLabel"><rect class="box" x="581.15625" y="724.03125" width="43.234375" height="16.015625"></rect><text class="label" x="602.7732112789752" y="735.5330448168302" fill="red" text-anchor="middle">contexts</text></g><path d="M1339.0390625,312.1875L1339.0390625,316.3541666666667C1339.0390625,320.5208333333333,1339.0390625,328.8541666666667,1339.0390625,343.9427083333333C1339.0390625,359.03125,1339.0390625,380.875,1339.0390625,402.71875C1339.0390625,424.5625,1339.0390625,446.40625,1339.0390625,465.7552083333333C1339.0390625,485.1041666666667,1339.0390625,501.9583333333333,1339.0390625,518.8125C1339.0390625,535.6666666666666,1339.0390625,552.5208333333334,1339.0390625,568.5416666666666C1339.0390625,584.5625,1339.0390625,599.75,1339.0390625,614.9375C1339.0390625,630.125,1339.0390625,645.3125,1339.0390625,660.5C1339.0390625,675.6875,1339.0390625,690.875,1339.0390625,706.0625C1339.0390625,721.25,1339.0390625,736.4375,1229.0859375,751.101379716201C1119.1328125,765.7652594324021,899.2265625,779.9055188648041,789.2734375,786.975648581005L679.3203125,794.0457782972061" id="edge2" class="relation" marker-start="url(#dependencyStart)"></path><path d="M175.84170310356654,726.625L179.12459633630544,730.7916666666666C182.40748956904437,734.9583333333334,188.97327603452217,743.2916666666666,256.5999192672611,754.198997066044C324.2265625,765.1063274654213,452.9140625,778.5876549308424,517.2578125,785.3283186635531L581.6015625,792.0689823962637" id="edge3" class="relation" marker-start="url(#dependencyStart)"></path><path d="M182.9903135431569,417.75L196.06484461929742,426.1666666666667C209.13937569543793,434.5833333333333,235.28843784771894,451.4166666666667,247.53890629509968,464C259.78937474248045,476.5833333333333,258.14124948496084,484.9166666666667,257.3171868562011,489.0833333333333L256.4931242274413,493.25" id="edge4" class="relation" marker-start="url(#dependencyStart)"></path><path d="M654.8827062731767,533.8125L672.3521250193139,539.7395833333334C689.8215437654511,545.6666666666666,724.7603812577255,557.5208333333334,742.2298000038627,568.5364583333334C759.69921875,579.5520833333334,759.69921875,589.7291666666666,759.69921875,594.8177083333334L759.69921875,599.90625" id="edge5" class="relation" marker-start="url(#dependencyStart)"></path><path d="M1107.1265522279036,272.15625L1112.575512273253,282.9947916666667C1118.0244723186024,293.8333333333333,1128.9223924093012,315.5104166666667,1134.3713524546506,337.2708333333333C1139.8203125,359.03125,1139.8203125,380.875,1139.8203125,402.71875C1139.8203125,424.5625,1139.8203125,446.40625,1139.8203125,465.7552083333333C1139.8203125,485.1041666666667,1139.8203125,501.9583333333333,1139.8203125,518.8125C1139.8203125,535.6666666666666,1139.8203125,552.5208333333334,1086.2454427083333,567.3695676747747C1032.6705729166667,582.2183020162161,925.5208333333334,595.0616040324321,871.9459635416666,601.4832550405401L818.37109375,607.9049060486482" id="edge6" class="relation" marker-start="url(#dependencyStart)"></path><path d="M301.625,533.499974564775L322.0559895833333,539.4791454706459C342.4869791666667,545.4583163765167,383.3489583333333,557.4166581882583,449.916015625,569.6615459684378C516.4830729166666,581.9064337486174,608.7552083333334,594.4378674972346,654.8912760416666,600.7035843715433L701.02734375,606.969301245852" id="edge7" class="relation" marker-start="url(#dependencyStart)"></path><path d="M974.5852083977132,539.34375L982.5918403314276,544.3489583333334C990.5984722651423,549.3541666666666,1006.6117361325711,559.3645833333334,1014.6183680662856,568.5364583333334C1022.625,577.7083333333334,1022.625,586.0416666666666,1022.625,590.2083333333334L1022.625,594.375" id="edge8" class="relation" marker-start="url(#dependencyStart)"></path><path d="M1229.4296875,417.71875L1229.4296875,426.140625C1229.4296875,434.5625,1229.4296875,451.40625,1187.35546875,467.22287689414514C1145.28125,483.03950378829023,1061.1328125,497.8290075765805,1019.05859375,505.2237594707256L976.984375,512.6185113648708" id="edge9" class="relation" marker-start="url(#aggregationStart)"></path><g class="classLabel"><rect class="box" x="1102.203125" y="474.546875" width="51.78125" height="16.015625"></rect><text class="label" x="1128.0912450857336" y="486.0607321123488" fill="red" text-anchor="middle">stacktrace</text></g><path d="M1567.5,287.15625L1567.5,295.4947916666667C1567.5,303.8333333333333,1567.5,320.5104166666667,1520.2565104166667,338.0065945181368C1473.0130208333333,355.50277236960693,1378.5260416666667,373.8180447392138,1331.2825520833333,382.9756809240173L1284.0390625,392.13331710882073" id="edge10" class="relation" marker-start="url(#dependencyStart)"></path><path d="M1284.0390625,392.20922778149014L1287.927951388889,391.46081481790844C1291.8168402777776,390.7124018543268,1299.5946180555554,389.2155759271634,1304.4557291666667,388.46716296358164C1309.3168402777776,387.71875,1311.2612847222224,387.71875,1313.2057291666667,390.21875C1315.150173611111,392.71875,1317.0946180555557,397.71875,1317.0946180555557,402.71875C1317.0946180555557,407.71875,1315.150173611111,412.71875,1313.2057291666667,415.21875C1311.2612847222224,417.71875,1309.3168402777776,417.71875,1304.4557291666667,416.97033703641836C1299.5946180555554,416.2219240728366,1291.8168402777776,414.7250981456732,1287.927951388889,413.97668518209156L1284.0390625,413.22827221850986" id="edge11" class="relation" marker-start="url(#aggregationStart)"></path><g class="classLabel"><rect class="box" x="1301.734375" y="391.21875" width="34.609375" height="16.0625"></rect><text class="label" x="1319.0390625" y="402.71875" fill="red" text-anchor="middle">parent</text></g><path d="M1102.3274287801314,272.15625L1105.2429094001095,282.9947916666667C1108.1583900200876,293.8333333333333,1113.9893512600438,315.5104166666667,1130.9914921387247,334.7708333333333C1147.9936330174057,354.03125,1176.1669535348117,370.875,1190.2536137935147,379.296875L1204.3402740522174,387.71875" id="edge12" class="relation" marker-start="url(#aggregationStart)"></path><g class="classLabel"><rect class="box" x="1113.609375" y="333.671875" width="39.140625" height="16.015625"></rect><text class="label" x="1133.1800410962558" y="345.17477038242293" fill="red" text-anchor="middle">method</text></g><path d="M170.1685927813543,417.75L176.06367106779524,426.1666666666667C181.95874935423618,434.5833333333333,193.7489059271181,451.4166666666667,316.4708071302257,467.8570105402509C439.1927083333333,484.2973544138351,672.8463541666666,500.3447088276701,789.6731770833334,508.3683860345877L906.5,516.3920632415052" id="edge13" class="relation" marker-start="url(#dependencyStart)"></path><path d="M159.640625,417.75L159.640625,426.1666666666667C159.640625,434.5833333333333,159.640625,451.4166666666667,159.640625,468.2604166666667C159.640625,485.1041666666667,159.640625,501.9583333333333,159.640625,518.8125C159.640625,535.6666666666666,159.640625,552.5208333333334,159.640625,568.5416666666666C159.640625,584.5625,159.640625,599.75,159.640625,614.9375C159.640625,630.125,159.640625,645.3125,159.640625,657.0729166666666C159.640625,668.8333333333334,159.640625,677.1666666666666,159.640625,681.3333333333334L159.640625,685.5" id="edge14" class="relation" marker-start="url(#dependencyStart)"></path><path d="M81.86543475741657,544.375L85.05127375618046,548.5416666666666C88.23711275494436,552.7083333333334,94.60879075247219,561.0416666666666,149.63382245956942,571.3774368578657C204.65885416666666,581.7132070490649,308.3372395833333,594.0514140981298,360.1764322916667,600.2205176226622L412.015625,606.3896211471947" id="edge15" class="relation" marker-start="url(#dependencyStart)"></path><path d="M610.671875,533.8125L610.671875,539.7395833333334C610.671875,545.6666666666666,610.671875,557.5208333333334,596.507371327732,568.5364583333334C582.3428676554641,579.5520833333334,554.0138603109282,589.7291666666666,539.8493566386602,594.8177083333334L525.6848529663923,599.90625" id="edge16" class="relation" marker-start="url(#dependencyStart)"></path><path d="M124.74572402263374,726.625L117.6748221021948,730.7916666666666C110.60392018175583,734.9583333333334,96.46211634087791,743.2916666666666,103.15261345450388,752.546875C109.84311056812986,761.8020833333334,137.36590863625972,771.9791666666666,151.12730767032463,777.0677083333334L164.88870670438956,782.15625" id="edge17" class="relation" marker-start="url(#aggregationStart)"></path><g class="classLabel"><rect class="box" x="78.15625" y="746.84375" width="44.71875" height="16.0625"></rect><text class="label" x="100.51100785103046" y="758.3513590722299" fill="red" text-anchor="middle">endpoint</text></g><path d="M1097.5283053323594,272.15625L1097.9103065269662,282.9947916666667C1098.292307721573,293.8333333333333,1099.0563101107864,315.5104166666667,1099.4383113053932,337.2708333333333C1099.8203125,359.03125,1099.8203125,380.875,1099.8203125,402.71875C1099.8203125,424.5625,1099.8203125,446.40625,1099.8203125,465.7552083333333C1099.8203125,485.1041666666667,1099.8203125,501.9583333333333,1099.8203125,518.8125C1099.8203125,535.6666666666666,1099.8203125,552.5208333333334,1099.8203125,568.5416666666666C1099.8203125,584.5625,1099.8203125,599.75,1099.8203125,614.9375C1099.8203125,630.125,1099.8203125,645.3125,1099.8203125,660.5C1099.8203125,675.6875,1099.8203125,690.875,1099.8203125,706.0625C1099.8203125,721.25,1099.8203125,736.4375,959.76953125,751.1666603876192C819.71875,765.8958207752385,539.6171875,780.1666415504769,399.56640625,787.3020519380963L259.515625,794.4374623257155" id="edge18" class="relation" marker-start="url(#aggregationStart)"></path><g class="classLabel"><rect class="box" x="880.296875" y="749.328125" width="77.640625" height="16.0625"></rect><text class="label" x="919.1119629518493" y="760.8318621323411" fill="red" text-anchor="middle">endpointMethod</text></g><path d="M42.775190242583434,544.375L39.58935124381953,548.5416666666666C36.40351224505562,552.7083333333334,30.03183424752781,561.0416666666666,26.84599524876391,572.8020833333334C23.66015625,584.5625,23.66015625,599.75,23.66015625,614.9375C23.66015625,630.125,23.66015625,645.3125,23.66015625,660.5C23.66015625,675.6875,23.66015625,690.875,23.66015625,706.0625C23.66015625,721.25,23.66015625,736.4375,44.977213541666664,749.371387803097C66.29427083333333,762.305275606194,108.92838541666667,772.985551212388,130.24544270833334,778.3256890154852L151.5625,783.6658268185821" id="edge19" class="relation" marker-start="url(#aggregationStart)"></path><g class="classLabel"><rect class="box" x="-12.4375" y="699.1875" width="72.203125" height="16.015625"></rect><text class="label" x="23.66015625" y="710.6920906711363" fill="red" text-anchor="middle">callParameters</text></g><path d="M323.44711291152265,721.0625L319.9669951346022,726.15625C316.48687735768175,731.25,309.5266418038409,741.4375,295.2102511824132,751.6197916666666C280.8938605609854,761.8020833333334,259.2213148719707,771.9791666666666,248.38504202746344,777.0677083333334L237.5487691829561,782.15625" id="edge20" class="relation" marker-start="url(#aggregationStart)"></path><g class="classLabel"><rect class="box" x="244.828125" y="747.515625" width="83.96875" height="16.0625"></rect><text class="label" x="286.8097509387952" y="759.0240751459355" fill="red" text-anchor="middle">endpointContexts</text></g><path d="M936.4571036773795,539.34375L935.1686801478162,544.3489583333334C933.880256618253,549.3541666666666,931.3034095591265,559.3645833333334,930.0149860295633,571.9635416666666C928.7265625,584.5625,928.7265625,599.75,928.7265625,614.9375C928.7265625,630.125,928.7265625,645.3125,928.7265625,660.5C928.7265625,675.6875,928.7265625,690.875,928.7265625,706.0625C928.7265625,721.25,928.7265625,736.4375,817.19140625,751.058225102087C705.65625,765.6789502041743,482.5859375,779.7329004083485,371.05078125,786.7598755104356L259.515625,793.7868506125227" id="edge21" class="relation" marker-start="url(#dependencyStart)"></path><path d="M251.4375,544.375L251.4375,548.5416666666666C251.4375,552.7083333333334,251.4375,561.0416666666666,251.4375,572.8020833333334C251.4375,584.5625,251.4375,599.75,251.4375,614.9375C251.4375,630.125,251.4375,645.3125,251.4375,660.5C251.4375,675.6875,251.4375,690.875,251.4375,706.0625C251.4375,721.25,251.4375,736.4375,246.31143993627117,749.1197916666666C241.18537987254228,761.8020833333334,230.93325974508457,771.9791666666666,225.80719968135574,777.0677083333334L220.68113961762688,782.15625" id="edge22" class="relation" marker-start="url(#dependencyStart)"></path><path d="M137.3177493144969,417.75L124.81817651208075,426.1666666666667C112.3186037096646,434.5833333333333,87.3194581048323,451.4166666666667,74.81988530241615,464C62.3203125,476.5833333333333,62.3203125,484.9166666666667,62.3203125,489.0833333333333L62.3203125,493.25" id="edge23" class="relation" marker-start="url(#dependencyStart)"></path><path d="M906.5,531.9917931846417L889.8391927083334,538.2223276538681C873.1783854166666,544.4528621230944,839.8567708333334,556.9139310615473,749.109375,570.1893443348955C658.3619791666666,583.4647576082438,510.1888020833333,597.5545152164874,436.1022135416667,604.5993940206093L362.015625,611.6442728247312" id="edge24" class="relation" marker-start="url(#aggregationStart)"></path><g class="classLabel"><rect class="box" x="609.65625" y="573.953125" width="55.484375" height="16.015625"></rect><text class="label" x="637.3988402585403" y="585.458138270908" fill="red" text-anchor="middle">transaction</text></g><path d="M114.9948736289938,417.75L89.99572802416151,426.1666666666667C64.9965824193292,434.5833333333333,14.9982912096646,451.4166666666667,-10.0008543951677,468.2604166666667C-35,485.1041666666667,-35,501.9583333333333,-35,518.8125C-35,535.6666666666666,-35,552.5208333333334,19.625,567.8159343447954C74.25,583.1110353562575,183.5,596.8470707125149,238.125,603.7150883906436L292.75,610.5831060687723" id="edge25" class="relation" marker-start="url(#dependencyStart)"></path><path d="M604.7386240729295,533.8125L602.3941658941079,539.7395833333334C600.0497077152863,545.6666666666666,595.3607913576432,557.5208333333334,593.0163331788216,571.0416666666666C590.671875,584.5625,590.671875,599.75,590.671875,614.9375C590.671875,630.125,590.671875,645.3125,555.71875,659.1035146155717C520.765625,672.8945292311433,450.859375,685.2890584622868,415.90625,691.4863230778586L380.953125,697.6835876934302" id="edge26" class="relation" marker-start="url(#aggregationStart)"></path><g class="classLabel"><rect class="box" x="522.359375" y="656.296875" width="54.28125" height="16.015625"></rect><text class="label" x="549.5033980179605" y="667.799259956807" fill="red" text-anchor="middle">constraints</text></g><path d="M327.3828125,635.4375L327.3828125,639.6145833333334C327.3828125,643.7916666666666,327.3828125,652.1458333333334,328.08853094993145,661.4166666666666C328.79424939986285,670.6875,330.20568629972564,680.875,330.9114047496571,685.96875L331.6171231995885,691.0625" id="edge27" class="relation" marker-start="url(#aggregationStart)"></path><g class="classLabel"><rect class="box" x="298.015625" y="651.859375" width="59.53125" height="16.015625"></rect><text class="label" x="327.78024048648336" y="663.3685643776869" fill="red" text-anchor="middle">transactions</text></g><path d="M110.40736766809728,417.75L82.83947305674774,426.1666666666667C55.271578445398184,434.5833333333333,0.1357892226990932,451.4166666666667,-27.432105388650456,468.2604166666667C-55,485.1041666666667,-55,501.9583333333333,-55,518.8125C-55,535.6666666666666,-55,552.5208333333334,-55,568.5416666666666C-55,584.5625,-55,599.75,-55,614.9375C-55,630.125,-55,645.3125,1.90625,659.5767472564468C58.8125,673.8409945128936,172.625,687.1819890257874,229.53125,693.8524862822342L286.4375,700.522983538681" id="edge28" class="relation" marker-start="url(#dependencyStart)"></path><path d="M1067.34350603771,272.15625L1051.7908123230918,282.9947916666667C1036.2381186084733,293.8333333333333,1005.1327311792367,315.5104166666667,989.5800374646184,337.2708333333333C974.02734375,359.03125,974.02734375,380.875,974.02734375,402.71875C974.02734375,424.5625,974.02734375,446.40625,970.8314192386433,462.3333333333333C967.6354947272868,478.2604166666667,961.2436457045736,488.2708333333333,958.047721193217,493.2760416666667L954.8517966818604,498.28125" id="edge29" class="relation" marker-start="url(#aggregationStart)"></path><g class="classLabel"><rect class="box" x="954.453125" y="352.15625" width="39.140625" height="16.015625"></rect><text class="label" x="974.0273437499999" y="363.6639160213081" fill="red" text-anchor="middle">method</text></g><path d="M1446.0703125,105.19583803033409L1466.30859375,115.34028169194507C1486.546875,125.48472535355604,1527.0234375,145.77361267677801,1547.26171875,164.25659800505568C1567.5,182.73958333333334,1567.5,199.41666666666666,1567.5,207.75520833333334L1567.5,216.09375" id="edge30" class="relation" marker-start="url(#aggregationStart)"></path><g class="classLabel"><rect class="box" x="1519.171875" y="135.328125" width="19.953125" height="16.015625"></rect><text class="label" x="1529.1486162473311" y="146.83885906834863" fill="red" text-anchor="middle">file</text></g><path d="M1042.796875,270.5843423456632L1011.17578125,281.684868621386C979.5546875,292.7853948971088,916.3125,314.9864474485544,884.69140625,330.2536403909439C853.0703125,345.5208333333333,853.0703125,353.8541666666667,853.0703125,358.0208333333333L853.0703125,362.1875" id="edge31" class="relation" marker-start="url(#aggregationStart)"></path><g class="classLabel"><rect class="box" x="907.640625" y="296.515625" width="57" height="16.0625"></rect><text class="label" x="936.1392240187954" y="308.0263127779393" fill="red" text-anchor="middle">javaMethod</text></g><path d="M1425.9046719107785,141.0625L1428.798815133982,145.22916666666666C1431.6929583571855,149.39583333333334,1437.4812448035927,157.72916666666666,1435.2996408268937,166.0625C1433.1180368501948,174.39583333333334,1422.9665424503899,182.72916666666666,1417.890795250487,186.89583333333334L1412.8150480505844,191.0625" id="edge32" class="relation" marker-start="url(#aggregationStart)"></path><g class="classLabel"><rect class="box" x="1406.53125" y="157.390625" width="66.546875" height="16.015625"></rect><text class="label" x="1439.8058978597378" y="168.90578695350226" fill="red" text-anchor="middle">rootFileModel</text></g><path d="M1420.890625,204.49717604169243L1424.779513888889,202.25806336807705C1428.6684027777776,200.01895069446164,1436.4461805555554,195.54072534723082,1441.3072916666667,193.3016126736154C1446.1684027777776,191.0625,1448.1128472222224,191.0625,1450.0572916666667,201.15625C1452.0017361111113,211.25,1453.9461805555557,231.4375,1453.9461805555557,251.625C1453.9461805555557,271.8125,1452.0017361111113,292,1450.0572916666667,302.09375C1448.1128472222224,312.1875,1446.1684027777776,312.1875,1441.3072916666667,309.9483873263846C1436.4461805555554,307.7092746527692,1428.6684027777776,303.2310493055384,1424.7795138888887,300.991936631923L1420.890625,298.7528239583076" id="edge33" class="relation" marker-start="url(#aggregationStart)"></path><g class="classLabel"><rect class="box" x="1422.15625" y="240.125" width="67.46875" height="16.0625"></rect><text class="label" x="1455.890625" y="251.625" fill="red" text-anchor="middle">parentProject</text></g><path d="M1307.7578125,92.04832653749268L1268.1106770833333,104.38402211457723C1228.4635416666667,116.7197176916618,1149.1692708333333,141.3911088458309,1140.7408854166667,163.65069348917964C1132.3125,185.91027813252836,1194.75,205.75805626505675,1225.96875,215.68194533132092L1257.1875,225.6058343975851" id="edge34" class="relation" marker-start="url(#aggregationStart)"></path><g class="classLabel"><rect class="box" x="1048.984375" y="146.75" width="91.984375" height="16.0625"></rect><text class="label" x="1094.9791818830452" y="158.25165711900777" fill="red" text-anchor="middle">projectModelToFile</text></g><path d="M1307.7578125,81.26289158174596L1216.6809895833333,95.39615965145497C1125.6041666666667,109.52942772116398,943.4505208333334,137.795963860582,852.3736979166666,166.18964859695765C761.296875,194.58333333333334,761.296875,223.10416666666666,761.296875,251.625C761.296875,280.1458333333333,761.296875,308.6666666666667,761.296875,333.8489583333333C761.296875,359.03125,761.296875,380.875,761.296875,402.71875C761.296875,424.5625,761.296875,446.40625,763.0083283438917,462.3333333333333C764.7197816877833,478.2604166666667,768.1426883755666,488.2708333333333,769.8541417194582,493.2760416666667L771.5655950633499,498.28125" id="edge35" class="relation" marker-start="url(#dependencyStart)"></path><path d="M853.0703125,443.25L853.0703125,447.4166666666667C853.0703125,451.5833333333333,853.0703125,459.9166666666667,845.6970652425834,469.0885416666667C838.3238179851669,478.2604166666667,823.5773234703338,488.2708333333333,816.2040762129171,493.2760416666667L808.8308289555006,498.28125" id="edge36" class="relation" marker-start="url(#aggregationStart)"></path><g class="classLabel"><rect class="box" x="818.109375" y="464.734375" width="46.375" height="16.0625"></rect><text class="label" x="841.2927577036965" y="476.24500048685513" fill="red" text-anchor="middle">javaClass</text></g></svg>